<svg width="55" height="55" viewBox="0 0 55 55" fill="none" xmlns="http://www.w3.org/2000/svg">
<path d="M30.1673 14.1615H24.834V24.8281H14.1673V30.1615H24.834V40.8281H30.1673V30.1615H40.834V24.8281H30.1673V14.1615ZM27.5007 0.828125C12.7807 0.828125 0.833984 12.7748 0.833984 27.4948C0.833984 42.2148 12.7807 54.1615 27.5007 54.1615C42.2207 54.1615 54.1673 42.2148 54.1673 27.4948C54.1673 12.7748 42.2207 0.828125 27.5007 0.828125ZM27.5007 48.8281C15.7407 48.8281 6.16732 39.2548 6.16732 27.4948C6.16732 15.7348 15.7407 6.16146 27.5007 6.16146C39.2607 6.16146 48.834 15.7348 48.834 27.4948C48.834 39.2548 39.2607 48.8281 27.5007 48.8281Z" fill="#353535"/>
</svg>
