<svg width="26" height="20" viewBox="0 0 26 20" fill="none" xmlns="http://www.w3.org/2000/svg">
<path d="M21.168 12.3332V2.99984C21.168 1.7165 20.118 0.666504 18.8346 0.666504H2.5013C1.21797 0.666504 0.167969 1.7165 0.167969 2.99984V12.3332C0.167969 13.6165 1.21797 14.6665 2.5013 14.6665H18.8346C20.118 14.6665 21.168 13.6165 21.168 12.3332ZM10.668 11.1665C8.7313 11.1665 7.16797 9.60317 7.16797 7.6665C7.16797 5.72984 8.7313 4.1665 10.668 4.1665C12.6046 4.1665 14.168 5.72984 14.168 7.6665C14.168 9.60317 12.6046 11.1665 10.668 11.1665ZM25.8346 4.1665V16.9998C25.8346 18.2832 24.7846 19.3332 23.5013 19.3332H3.66797V16.9998H23.5013V4.1665H25.8346Z" fill="#575757"/>
</svg>
