<svg width="24" height="24" viewBox="0 0 24 24" fill="none" xmlns="http://www.w3.org/2000/svg">
<path d="M11.9987 0.333496C5.5587 0.333496 0.332031 5.56016 0.332031 12.0002C0.332031 18.4402 5.5587 23.6668 11.9987 23.6668C18.4387 23.6668 23.6654 18.4402 23.6654 12.0002C23.6654 5.56016 18.4387 0.333496 11.9987 0.333496ZM11.9987 3.8335C13.9354 3.8335 15.4987 5.39683 15.4987 7.3335C15.4987 9.27016 13.9354 10.8335 11.9987 10.8335C10.062 10.8335 8.4987 9.27016 8.4987 7.3335C8.4987 5.39683 10.062 3.8335 11.9987 3.8335ZM11.9987 20.4002C9.08203 20.4002 6.5037 18.9068 4.9987 16.6435C5.0337 14.3218 9.66536 13.0502 11.9987 13.0502C14.3204 13.0502 18.9637 14.3218 18.9987 16.6435C17.4937 18.9068 14.9154 20.4002 11.9987 20.4002Z" fill="#575757"/>
</svg>
