<svg width="22" height="23" viewBox="0 0 22 23" fill="none" xmlns="http://www.w3.org/2000/svg">
<path d="M14.5 10.8335V3.8335L11 0.333496L7.5 3.8335V6.16683H0.5V22.5002H21.5V10.8335H14.5ZM5.16667 20.1668H2.83333V17.8335H5.16667V20.1668ZM5.16667 15.5002H2.83333V13.1668H5.16667V15.5002ZM5.16667 10.8335H2.83333V8.50016H5.16667V10.8335ZM12.1667 20.1668H9.83333V17.8335H12.1667V20.1668ZM12.1667 15.5002H9.83333V13.1668H12.1667V15.5002ZM12.1667 10.8335H9.83333V8.50016H12.1667V10.8335ZM12.1667 6.16683H9.83333V3.8335H12.1667V6.16683ZM19.1667 20.1668H16.8333V17.8335H19.1667V20.1668ZM19.1667 15.5002H16.8333V13.1668H19.1667V15.5002Z" fill="#575757"/>
</svg>
