<svg width="12" height="16" viewBox="0 0 12 16" fill="none" xmlns="http://www.w3.org/2000/svg">
<path d="M8.53805 2.66667H11.0764C11.3099 2.66667 11.4994 2.51733 11.4994 2.33333V0.333333C11.4994 0.149333 11.3099 0 11.0764 0H8.53805C5.97264 0 3.88444 1.64467 3.88444 3.66667V6H0.923055C0.689529 6 0.5 6.14933 0.5 6.33333V8.33333C0.5 8.51733 0.689529 8.66667 0.923055 8.66667H3.88444V15.6667C3.88444 15.8507 4.07397 16 4.3075 16H6.84583C7.07935 16 7.26888 15.8507 7.26888 15.6667V8.66667H10.2303C10.4122 8.66667 10.5738 8.57467 10.6322 8.43867L11.4783 6.43867C11.5214 6.33733 11.4994 6.22533 11.4199 6.138C11.3395 6.05133 11.2126 6 11.0764 6H7.26888V3.66667C7.26888 3.11533 7.83831 2.66667 8.53805 2.66667Z" fill="#181818"/>
</svg>
