<svg width="40" height="40" viewBox="0 0 40 40" fill="none" xmlns="http://www.w3.org/2000/svg">
<rect x="0.5" y="0.5" width="39" height="39" rx="19.5" fill="white"/>
<path d="M22.538 14.6667H25.0764C25.3099 14.6667 25.4994 14.5173 25.4994 14.3333V12.3333C25.4994 12.1493 25.3099 12 25.0764 12H22.538C19.9726 12 17.8844 13.6447 17.8844 15.6667V18H14.9231C14.6895 18 14.5 18.1493 14.5 18.3333V20.3333C14.5 20.5173 14.6895 20.6667 14.9231 20.6667H17.8844V27.6667C17.8844 27.8507 18.074 28 18.3075 28H20.8458C21.0794 28 21.2689 27.8507 21.2689 27.6667V20.6667H24.2303C24.4122 20.6667 24.5738 20.5747 24.6322 20.4387L25.4783 18.4387C25.5214 18.3373 25.4994 18.2253 25.4199 18.138C25.3395 18.0513 25.2126 18 25.0764 18H21.2689V15.6667C21.2689 15.1153 21.8383 14.6667 22.538 14.6667Z" fill="#232323"/>
<rect x="0.5" y="0.5" width="39" height="39" rx="19.5" stroke="#F5F5F5"/>
</svg>
