<svg width="92" height="20" viewBox="0 0 92 20" fill="none" xmlns="http://www.w3.org/2000/svg">
<path d="M10 1L13 7L19 7.75L14.88 12.37L16 19L10 16L4 19L5.13 12.37L1 7.75L7 7L10 1Z" fill="#E9B226"/>
<path d="M34 1L37 7L43 7.75L38.88 12.37L40 19L34 16L28 19L29.13 12.37L25 7.75L31 7L34 1Z" fill="#E9B226"/>
<path d="M58 1L61 7L67 7.75L62.88 12.37L64 19L58 16L52 19L53.13 12.37L49 7.75L55 7L58 1Z" fill="#E9B226"/>
<path d="M82 1L85 7L91 7.75L86.88 12.37L88 19L82 16L76 19L77.13 12.37L73 7.75L79 7L82 1Z" fill="#E9B226"/>
</svg>
