<svg width="12" height="12" viewBox="0 0 12 12" fill="none" xmlns="http://www.w3.org/2000/svg">
<path d="M8.59977 0.777665C7.17525 0.289712 5.39343 0.718337 4.32487 1.48693C4.28821 1.34361 4.15755 1.23695 4.00223 1.23695H0.669237C0.485256 1.23695 0.335938 1.38627 0.335938 1.57025V11.5693C0.335938 11.7533 0.485256 11.9026 0.669237 11.9026H4.00223C4.18622 11.9026 4.33553 11.7533 4.33553 11.5693V4.38331C4.87415 3.91936 5.56808 3.77137 6.13602 4.01268C6.68663 4.24533 7.00193 4.81327 7.00193 5.56987V11.5693C7.00193 11.7533 7.15125 11.9026 7.33523 11.9026H10.6682C10.8522 11.9026 11.0015 11.7533 11.0015 11.5693V4.8986C10.9635 2.15953 9.675 1.14563 8.59977 0.777665Z" fill="#181818"/>
</svg>
