<svg width="40" height="40" viewBox="0 0 40 40" fill="none" xmlns="http://www.w3.org/2000/svg">
<rect x="0.5" y="0.5" width="39" height="39" rx="19.5" fill="white"/>
<path d="M13.9999 15.9999C15.1044 15.9999 15.9998 15.1046 15.9998 14.0002C15.9998 12.8958 15.1044 12.0005 13.9999 12.0005C12.8954 12.0005 12 12.8958 12 14.0002C12 15.1046 12.8954 15.9999 13.9999 15.9999Z" fill="#232323"/>
<path d="M15.6662 17.334H12.3333C12.1493 17.334 12 17.4833 12 17.6673V27.6664C12 27.8504 12.1493 27.9997 12.3333 27.9997H15.6662C15.8502 27.9997 15.9995 27.8504 15.9995 27.6664V17.6673C15.9995 17.4833 15.8502 17.334 15.6662 17.334Z" fill="#232323"/>
<path d="M25.5998 16.7811C24.1752 16.2931 22.3934 16.7218 21.3249 17.4903C21.2882 17.347 21.1576 17.2404 21.0022 17.2404H17.6692C17.4853 17.2404 17.3359 17.3897 17.3359 17.5737V27.5727C17.3359 27.7567 17.4853 27.906 17.6692 27.906H21.0022C21.1862 27.906 21.3355 27.7567 21.3355 27.5727V20.3867C21.8741 19.9228 22.5681 19.7748 23.136 20.0161C23.6866 20.2487 24.0019 20.8167 24.0019 21.5733V27.5727C24.0019 27.7567 24.1512 27.906 24.3352 27.906H27.6682C27.8522 27.906 28.0015 27.7567 28.0015 27.5727V20.902C27.9635 18.1629 26.675 17.149 25.5998 16.7811Z" fill="#232323"/>
<rect x="0.5" y="0.5" width="39" height="39" rx="19.5" stroke="#F5F5F5"/>
</svg>
