<svg width="22" height="22" viewBox="0 0 22 22" fill="none" xmlns="http://www.w3.org/2000/svg">
<path opacity="0.5" d="M11.0008 0.800003C8.98341 0.800003 7.01135 1.39822 5.33397 2.51901C3.65659 3.6398 2.34923 5.23282 1.57721 7.09663C0.805201 8.96044 0.603207 11.0113 0.996776 12.9899C1.39034 14.9685 2.3618 16.786 3.7883 18.2125C5.21479 19.639 7.03226 20.6104 9.01086 21.004C10.9895 21.3976 13.0403 21.1956 14.9042 20.4236C16.768 19.6516 18.361 18.3442 19.4818 16.6668C20.6026 14.9894 21.2008 13.0174 21.2008 11C21.2008 9.66052 20.9369 8.33415 20.4243 7.09663C19.9118 5.85911 19.1604 4.73467 18.2133 3.78751C17.2661 2.84036 16.1417 2.08903 14.9042 1.57643C13.6666 1.06383 12.3403 0.800003 11.0008 0.800003ZM11.0008 19.16C9.38689 19.16 7.80923 18.6814 6.46733 17.7848C5.12543 16.8882 4.07954 15.6137 3.46193 14.1227C2.84432 12.6317 2.68272 10.9909 2.99758 9.40806C3.31243 7.82518 4.0896 6.37121 5.23079 5.23001C6.37199 4.08881 7.82596 3.31165 9.40884 2.99679C10.9917 2.68194 12.6324 2.84353 14.1235 3.46115C15.6145 4.07876 16.8889 5.12464 17.7856 6.46655C18.6822 7.80845 19.1608 9.38611 19.1608 11C19.1608 13.1642 18.3011 15.2397 16.7708 16.77C15.2405 18.3003 13.1649 19.16 11.0008 19.16Z" fill="#222222"/>
<path d="M19.16 11H21.2C21.2 9.66052 20.9362 8.33415 20.4236 7.09663C19.911 5.85911 19.1596 4.73467 18.2125 3.78751C17.2653 2.84036 16.1409 2.08903 14.9034 1.57643C13.6658 1.06383 12.3395 0.800003 11 0.800003V2.84C13.1642 2.84 15.2397 3.69971 16.77 5.23001C18.3003 6.76031 19.16 8.83583 19.16 11Z" fill="#222222"/>
</svg>
