<svg width="16" height="16" viewBox="0 0 16 16" fill="none" xmlns="http://www.w3.org/2000/svg">
<g clip-path="url(#clip0_792_52262)">
<path d="M8.00065 1.33594C5.42065 1.33594 3.33398 3.4226 3.33398 6.0026C3.33398 7.1626 3.66732 8.24927 4.27398 9.22927C4.90732 10.2559 5.74065 11.1359 6.38065 12.1626C6.69398 12.6626 6.92065 13.1293 7.16065 13.6693C7.33398 14.0359 7.47398 14.6693 8.00065 14.6693C8.52732 14.6693 8.66732 14.0359 8.83398 13.6693C9.08065 13.1293 9.30065 12.6626 9.61398 12.1626C10.254 11.1426 11.0873 10.2626 11.7207 9.22927C12.334 8.24927 12.6673 7.1626 12.6673 6.0026C12.6673 3.4226 10.5807 1.33594 8.00065 1.33594ZM8.00065 7.83594C7.08065 7.83594 6.33398 7.08927 6.33398 6.16927C6.33398 5.24927 7.08065 4.5026 8.00065 4.5026C8.92065 4.5026 9.66732 5.24927 9.66732 6.16927C9.66732 7.08927 8.92065 7.83594 8.00065 7.83594Z" fill="#353535"/>
</g>
<defs>
<clipPath id="clip0_792_52262">
<rect width="16" height="16" fill="white"/>
</clipPath>
</defs>
</svg>
