<svg width="35" height="33" viewBox="0 0 35 33" fill="none" xmlns="http://www.w3.org/2000/svg">
<path fill-rule="evenodd" clip-rule="evenodd" d="M12.2168 15.0142V15.1443V20.0428C12.2168 20.0576 12.2171 20.0724 12.2176 20.087C12.2171 20.1011 12.2168 20.1153 12.2168 20.1295C12.2168 20.7281 12.704 21.2133 13.305 21.2133H13.389L13.3921 21.2133L13.3952 21.2133H21.1351C21.4022 21.2133 21.6188 21.4289 21.6188 21.695V23.3326C21.6188 23.5987 21.4022 23.8143 21.1351 23.8143H13.5227C12.8015 23.8143 12.2168 24.3966 12.2168 25.1148C12.2168 25.8331 12.8015 26.4153 13.5227 26.4153H22.6639C22.6863 26.4153 22.7085 26.4148 22.7306 26.4137C22.7516 26.4148 22.7728 26.4153 22.7941 26.4153C23.4432 26.4153 23.9694 25.8913 23.9694 25.2449V25.1494C23.9697 25.1379 23.9698 25.1264 23.9698 25.1148C23.9698 25.1033 23.9697 25.0917 23.9694 25.0802L23.9694 20.2162C23.9694 20.2035 23.9692 20.1907 23.9687 20.178C23.9695 20.1619 23.9698 20.1458 23.9698 20.1295C23.9698 19.531 23.4826 19.0458 22.8816 19.0458H15.0511C14.7839 19.0458 14.5674 18.8301 14.5674 18.5641L14.5674 16.9264C14.5674 16.6604 14.7839 16.4448 15.0511 16.4448H22.6639C23.3851 16.4448 23.9698 15.8625 23.9698 15.1443C23.9698 14.426 23.3851 13.8438 22.6639 13.8438H13.5227C13.5002 13.8438 13.4779 13.8443 13.4557 13.8454C13.4346 13.8443 13.4134 13.8438 13.3921 13.8438C12.743 13.8438 12.2168 14.3678 12.2168 15.0142Z" fill="#016D71"/>
<path fill-rule="evenodd" clip-rule="evenodd" d="M32.6152 11.6408C32.7937 11.753 33.0005 11.8125 33.2116 11.8125C34.3321 11.8125 34.7557 10.3533 33.808 9.75786L18.7878 0.320606C18.1019 -0.110328 17.2284 -0.110329 16.5425 0.320606L1.52122 9.75853C0.57383 10.3538 0.997273 11.8125 2.11746 11.8125C2.32849 11.8125 2.53521 11.753 2.71369 11.6408L16.5418 2.95258C17.2277 2.52165 18.1012 2.52165 18.7871 2.95258L32.6152 11.6408Z" fill="#016D71"/>
<path fill-rule="evenodd" clip-rule="evenodd" d="M5.90293 32.1463C5.51536 32.1463 5.20117 31.8334 5.20117 31.4474L5.20117 29.7003V13.277C5.20117 12.891 5.51536 12.5781 5.90293 12.5781H6.95556C7.34313 12.5781 7.65731 12.891 7.65731 13.277L7.65731 29.0014C7.65731 29.3874 7.9715 29.7003 8.35907 29.7003H27.3064C27.694 29.7003 28.0082 29.3874 28.0082 29.0014V13.277C28.0082 12.891 28.3224 12.5781 28.7099 12.5781H29.7626C30.1501 12.5781 30.4643 12.891 30.4643 13.277V29.7003V31.4474C30.4643 31.8334 30.1501 32.1463 29.7626 32.1463H28.0082H7.65731H5.90293Z" fill="#016D71"/>
</svg>
