<svg width="88" height="88" viewBox="0 0 88 88" fill="none" xmlns="http://www.w3.org/2000/svg">
<rect width="88" height="88" rx="44" fill="#F5F5F5"/>
<g clip-path="url(#clip0_886_30891)">
<path d="M71.5536 71.1992C71.4557 71.3548 71.3569 71.5093 71.2591 71.6626C70.9779 71.8831 70.6443 72.0008 70.3028 72H17.6968C17.3705 72.0003 17.0512 71.893 16.7774 71.691C16.6865 71.5547 16.5967 71.4173 16.5059 71.2798L16.5967 71.223L43.2282 54.4253C43.4645 54.2766 43.73 54.1984 44 54.198C44.2701 54.1976 44.5358 54.275 44.7724 54.4231L71.4637 71.1424L71.5536 71.1992Z" fill="#018388"/>
<path d="M70.303 35.8783L47.2224 20.7106C46.2516 20.0726 45.1505 19.7365 44.0295 19.7358C42.9084 19.7352 41.807 20.0701 40.8357 20.707L17.697 35.8783C17.2471 35.8791 16.8158 36.0827 16.4977 36.4447C16.1796 36.8067 16.0006 37.2975 16 37.8094V70.069C16.0005 70.581 16.1795 71.0718 16.4976 71.4338C16.8157 71.7958 17.2471 71.9994 17.697 72H70.303C70.7529 71.9992 71.184 71.7954 71.5021 71.4335C71.8202 71.0715 71.9992 70.5809 72 70.069V37.8094C71.9994 37.2975 71.8204 36.8067 71.5023 36.4447C71.1842 36.0827 70.7529 35.8791 70.303 35.8783ZM71.8004 70.069C71.7994 70.5206 71.6413 70.9533 71.3607 71.2726C71.0801 71.5919 70.6998 71.7718 70.303 71.7729H17.697C17.3001 71.772 16.9196 71.5923 16.639 71.2729C16.3583 70.9536 16.2004 70.5206 16.1996 70.069V37.8094C16.2001 37.3576 16.358 36.9246 16.6387 36.6052C16.9194 36.2858 17.3 36.1061 17.697 36.1055L40.8357 20.9342C41.807 20.2973 42.9084 19.9624 44.0295 19.963C45.1505 19.9636 46.2516 20.2998 47.2224 20.9378L70.303 36.1055C70.7 36.1061 71.0806 36.2858 71.3613 36.6052C71.642 36.9246 71.7999 37.3576 71.8004 37.8094V70.069Z" fill="#232323"/>
<path d="M44.0301 54.13C43.8562 54.1306 43.6835 54.0977 43.5194 54.0325L43.4892 54.0203L43.4831 53.9439C43.4643 53.9545 43.4453 53.9646 43.4263 53.9741L43.4062 53.9842L43.3861 53.9741C43.344 53.953 43.3022 53.9292 43.2619 53.9034L24.8843 42.1521V18.1582C24.8848 17.601 25.0796 17.0669 25.4258 16.6729C25.772 16.279 26.2414 16.0574 26.731 16.0568H61.2693C61.7589 16.0574 62.2283 16.279 62.5745 16.6729C62.9207 17.0669 63.1155 17.601 63.116 18.1582V42.1828L63.0906 42.1991L44.7982 53.9035C44.5634 54.0524 44.2989 54.1304 44.0301 54.13Z" fill="white"/>
<path d="M44.0297 54.1868C43.8502 54.1875 43.6719 54.1534 43.5024 54.0861L43.442 54.0618L43.4394 54.0294L43.4058 54.0462L43.3656 54.0261C43.322 54.0043 43.2788 53.9797 43.2371 53.9529L24.834 42.1854V18.1582C24.8346 17.586 25.0346 17.0374 25.3901 16.6328C25.7457 16.2282 26.2278 16.0006 26.7306 16H61.2689C61.7718 16.0006 62.2538 16.2282 62.6094 16.6328C62.965 17.0374 63.165 17.586 63.1655 18.1582V42.2161L44.8223 53.953C44.58 54.1067 44.3071 54.1872 44.0297 54.1868ZM43.6291 53.8941C43.9961 54.014 44.3898 53.964 44.7245 53.7549L62.9659 42.0832V18.1582C62.9654 17.6462 62.7864 17.1554 62.4683 16.7934C62.1502 16.4314 61.7188 16.2278 61.2689 16.2272H26.7306C26.2807 16.2278 25.8494 16.4314 25.5312 16.7934C25.2131 17.1554 25.0341 17.6462 25.0336 18.1582V42.0524L26.2305 42.8173L43.335 53.755C43.3582 53.7699 43.3819 53.7839 43.4058 53.7971C43.4298 53.7839 43.4534 53.7699 43.4766 53.755L43.6111 53.6688L43.6291 53.8941Z" fill="#232323"/>
<path d="M71.5576 36.7166L64.3135 41.3511L63.0657 42.1496L44.7734 53.854C44.5461 53.9982 44.29 54.0737 44.0297 54.0732C43.8615 54.0738 43.6945 54.0419 43.5356 53.9789C43.4914 53.9629 43.4481 53.9439 43.4058 53.9221C43.3649 53.9017 43.325 53.879 43.2861 53.854L26.1816 42.9164L24.9338 42.119L16.457 36.6984C16.4339 36.6834 16.417 36.6586 16.4099 36.6295C16.4028 36.6004 16.4061 36.5692 16.4191 36.5428C16.432 36.5166 16.4536 36.4974 16.4791 36.4893C16.5045 36.4812 16.5318 36.4849 16.5548 36.4997L24.9338 41.8577L26.1816 42.6551L43.3839 53.6552C43.441 53.6917 43.5003 53.7232 43.5616 53.7495C43.5875 53.7608 43.6145 53.7711 43.6414 53.7801C43.8123 53.8398 43.992 53.8595 44.1697 53.838C44.3475 53.8166 44.5195 53.7544 44.6756 53.6552L63.0657 41.8895L64.3135 41.091L71.4597 36.519C71.4711 36.5117 71.4837 36.507 71.4967 36.5052C71.5097 36.5034 71.5229 36.5046 71.5355 36.5086C71.5481 36.5126 71.5599 36.5194 71.5702 36.5286C71.5805 36.5377 71.5891 36.5492 71.5955 36.5621C71.6019 36.5751 71.606 36.5894 71.6076 36.6042C71.6092 36.619 71.6082 36.634 71.6046 36.6483C71.6011 36.6627 71.5951 36.6761 71.5871 36.6878C71.579 36.6995 71.569 36.7093 71.5576 36.7166Z" fill="#232323"/>
<path d="M32.3783 23.497H29.5832C29.3714 23.497 29.1683 23.4013 29.0186 23.2309C28.8688 23.0604 28.7847 22.8293 28.7847 22.5883C28.7847 22.3473 28.8688 22.1161 29.0186 21.9457C29.1683 21.7753 29.3714 21.6796 29.5832 21.6796H32.3783C32.59 21.6796 32.7932 21.7753 32.9429 21.9457C33.0927 22.1161 33.1768 22.3473 33.1768 22.5883C33.1768 22.8293 33.0927 23.0604 32.9429 23.2309C32.7932 23.4013 32.59 23.497 32.3783 23.497Z" fill="#018388"/>
<path d="M35.6724 26.5639H29.5832C29.3714 26.5639 29.1683 26.4682 29.0186 26.2977C28.8688 26.1273 28.7847 25.8962 28.7847 25.6552C28.7847 25.4142 28.8688 25.183 29.0186 25.0126C29.1683 24.8422 29.3714 24.7465 29.5832 24.7465H35.6724C35.8842 24.7465 36.0873 24.8422 36.237 25.0126C36.3868 25.183 36.4709 25.4142 36.4709 25.6552C36.4709 25.8962 36.3868 26.1273 36.237 26.2977C36.0873 26.4682 35.8842 26.5639 35.6724 26.5639Z" fill="#BCBCBC"/>
<path d="M52.6844 34.7424H35.4153C35.2035 34.7424 35.0004 34.6466 34.8506 34.4762C34.7008 34.3058 34.6167 34.0747 34.6167 33.8336C34.6167 33.5926 34.7008 33.3615 34.8506 33.1911C35.0004 33.0207 35.2035 32.9249 35.4153 32.9249H52.6844C52.8962 32.9249 53.0994 33.0207 53.2491 33.1911C53.3989 33.3615 53.483 33.5926 53.483 33.8336C53.483 34.0747 53.3989 34.3058 53.2491 34.4762C53.0994 34.6466 52.8962 34.7424 52.6844 34.7424Z" fill="#018388"/>
<path d="M54.2818 38.2637H33.7185C33.5067 38.2637 33.3036 38.168 33.1538 37.9976C33.0041 37.8272 32.9199 37.596 32.9199 37.355C32.9199 37.114 33.0041 36.8829 33.1538 36.7124C33.3036 36.542 33.5067 36.4463 33.7185 36.4463H54.2818C54.4936 36.4463 54.6967 36.542 54.8465 36.7124C54.9962 36.8829 55.0803 37.114 55.0803 37.355C55.0803 37.596 54.9962 37.8272 54.8465 37.9976C54.6967 38.168 54.4936 38.2637 54.2818 38.2637Z" fill="#BCBCBC"/>
<path d="M54.2818 41.6714H33.7185C33.5067 41.6714 33.3036 41.5757 33.1538 41.4053C33.0041 41.2349 32.9199 41.0037 32.9199 40.7627C32.9199 40.5217 33.0041 40.2906 33.1538 40.1202C33.3036 39.9497 33.5067 39.854 33.7185 39.854H54.2818C54.4936 39.854 54.6967 39.9497 54.8465 40.1202C54.9962 40.2906 55.0803 40.5217 55.0803 40.7627C55.0803 41.0037 54.9962 41.2349 54.8465 41.4053C54.6967 41.5757 54.4936 41.6714 54.2818 41.6714Z" fill="#BCBCBC"/>
</g>
<g clip-path="url(#clip1_886_30891)">
<path d="M76 58C70.48 58 66 62.48 66 68C66 73.52 70.48 78 76 78C81.52 78 86 73.52 86 68C86 62.48 81.52 58 76 58ZM77 73H75V67H77V73ZM77 65H75V63H77V65Z" fill="#323232"/>
</g>
<defs>
<clipPath id="clip0_886_30891">
<rect width="56" height="56" fill="white" transform="translate(16 16)"/>
</clipPath>
<clipPath id="clip1_886_30891">
<rect width="24" height="24" fill="white" transform="translate(64 56)"/>
</clipPath>
</defs>
</svg>
