<svg width="16" height="16" viewBox="0 0 16 16" fill="none" xmlns="http://www.w3.org/2000/svg">
<g clip-path="url(#clip0_1527_2316)">
<path d="M3.33398 5.33594H4.66732V10.6693H3.33398V5.33594ZM8.00065 5.33594H6.00065C5.63398 5.33594 5.33398 5.63594 5.33398 6.0026V10.0026C5.33398 10.3693 5.63398 10.6693 6.00065 10.6693H8.00065C8.36732 10.6693 8.66732 10.3693 8.66732 10.0026V6.0026C8.66732 5.63594 8.36732 5.33594 8.00065 5.33594ZM7.33398 9.33594H6.66732V6.66927H7.33398V9.33594ZM12.0007 5.33594H10.0007C9.63398 5.33594 9.33398 5.63594 9.33398 6.0026V10.0026C9.33398 10.3693 9.63398 10.6693 10.0007 10.6693H12.0007C12.3673 10.6693 12.6673 10.3693 12.6673 10.0026V6.0026C12.6673 5.63594 12.3673 5.33594 12.0007 5.33594ZM11.334 9.33594H10.6673V6.66927H11.334V9.33594Z" fill="#353535"/>
<path d="M1.33398 2.66406V13.3307H14.6673V2.66406H1.33398ZM2.66732 11.9974V3.9974H13.334V11.9974H2.66732Z" fill="#353535"/>
</g>
<defs>
<clipPath id="clip0_1527_2316">
<rect width="16" height="16" fill="white"/>
</clipPath>
</defs>
</svg>
