<svg width="26" height="20" viewBox="0 0 26 20" fill="none" xmlns="http://www.w3.org/2000/svg">
<path d="M21.167 12.3334V3.00002C21.167 1.71669 20.117 0.666687 18.8337 0.666687H2.50033C1.21699 0.666687 0.166992 1.71669 0.166992 3.00002V12.3334C0.166992 13.6167 1.21699 14.6667 2.50033 14.6667H18.8337C20.117 14.6667 21.167 13.6167 21.167 12.3334ZM10.667 11.1667C8.73033 11.1667 7.16699 9.60335 7.16699 7.66669C7.16699 5.73002 8.73033 4.16669 10.667 4.16669C12.6037 4.16669 14.167 5.73002 14.167 7.66669C14.167 9.60335 12.6037 11.1667 10.667 11.1667ZM25.8337 4.16669V17C25.8337 18.2834 24.7837 19.3334 23.5003 19.3334H3.66699V17H23.5003V4.16669H25.8337Z" fill="#575757"/>
</svg>
