<svg width="24" height="24" viewBox="0 0 24 24" fill="none" xmlns="http://www.w3.org/2000/svg">
<path d="M11.9997 0.333313C5.55967 0.333313 0.333008 5.55998 0.333008 12C0.333008 18.44 5.55967 23.6666 11.9997 23.6666C18.4397 23.6666 23.6663 18.44 23.6663 12C23.6663 5.55998 18.4397 0.333313 11.9997 0.333313ZM11.9997 3.83331C13.9363 3.83331 15.4997 5.39665 15.4997 7.33331C15.4997 9.26998 13.9363 10.8333 11.9997 10.8333C10.063 10.8333 8.49967 9.26998 8.49967 7.33331C8.49967 5.39665 10.063 3.83331 11.9997 3.83331ZM11.9997 20.4C9.08301 20.4 6.50467 18.9066 4.99967 16.6433C5.03467 14.3216 9.66634 13.05 11.9997 13.05C14.3213 13.05 18.9647 14.3216 18.9997 16.6433C17.4947 18.9066 14.9163 20.4 11.9997 20.4Z" fill="#575757"/>
</svg>
