<svg width="16" height="16" viewBox="0 0 16 16" fill="none" xmlns="http://www.w3.org/2000/svg">
<g clip-path="url(#clip0_1527_5704)">
<path d="M8.00065 4.66927C6.16065 4.66927 4.66732 6.1626 4.66732 8.0026C4.66732 9.8426 6.16065 11.3359 8.00065 11.3359C9.84065 11.3359 11.334 9.8426 11.334 8.0026C11.334 6.1626 9.84065 4.66927 8.00065 4.66927ZM8.00065 1.33594C4.32065 1.33594 1.33398 4.3226 1.33398 8.0026C1.33398 11.6826 4.32065 14.6693 8.00065 14.6693C11.6807 14.6693 14.6673 11.6826 14.6673 8.0026C14.6673 4.3226 11.6807 1.33594 8.00065 1.33594ZM8.00065 13.3359C5.05398 13.3359 2.66732 10.9493 2.66732 8.0026C2.66732 5.05594 5.05398 2.66927 8.00065 2.66927C10.9473 2.66927 13.334 5.05594 13.334 8.0026C13.334 10.9493 10.9473 13.3359 8.00065 13.3359Z" fill="#353535"/>
</g>
<defs>
<clipPath id="clip0_1527_5704">
<rect width="16" height="16" fill="white"/>
</clipPath>
</defs>
</svg>
