<svg width="32" height="32" viewBox="0 0 32 32" fill="none" xmlns="http://www.w3.org/2000/svg">
<rect width="32" height="32" rx="16" fill="#E2E6EE"/>
<path d="M23 15.0001H13L16.29 11.7101C16.3837 11.6171 16.4581 11.5065 16.5089 11.3846C16.5597 11.2628 16.5858 11.1321 16.5858 11.0001C16.5858 10.868 16.5597 10.7373 16.5089 10.6155C16.4581 10.4936 16.3837 10.383 16.29 10.2901C16.1026 10.1038 15.8492 9.99927 15.585 9.99927C15.3208 9.99927 15.0674 10.1038 14.88 10.2901L10.59 14.5901C10.2144 14.9634 10.0022 15.4705 10 16.0001C10.0049 16.5262 10.2168 17.0292 10.59 17.4001L14.88 21.7C14.9732 21.7926 15.0838 21.8659 15.2054 21.9158C15.3269 21.9656 15.4571 21.9911 15.5885 21.9906C15.7199 21.9901 15.8499 21.9638 15.9712 21.9131C16.0924 21.8624 16.2024 21.7883 16.295 21.695C16.3876 21.6018 16.4609 21.4912 16.5107 21.3697C16.5606 21.2481 16.586 21.1179 16.5856 20.9865C16.5851 20.8551 16.5588 20.7251 16.508 20.6039C16.4573 20.4827 16.3832 20.3726 16.29 20.28L13 17.0001H23C23.2652 17.0001 23.5196 16.8947 23.7071 16.7072C23.8946 16.5196 24 16.2653 24 16.0001C24 15.7348 23.8946 15.4805 23.7071 15.2929C23.5196 15.1054 23.2652 15.0001 23 15.0001Z" fill="#16020E"/>
</svg>
