<svg width="177" height="57" viewBox="0 0 177 57" fill="none" xmlns="http://www.w3.org/2000/svg">
<path fill-rule="evenodd" clip-rule="evenodd" d="M13.4648 18.7643V18.9269V25.0501C13.4648 25.0686 13.4652 25.087 13.4658 25.1054C13.4652 25.123 13.4648 25.1407 13.4648 25.1585C13.4648 25.9067 14.0495 26.5132 14.7707 26.5132H14.8715L14.8752 26.5132L14.8789 26.5132H24.1668C24.4873 26.5132 24.7472 26.7828 24.7472 27.1153V29.1624C24.7472 29.4949 24.4873 29.7645 24.1668 29.7645H15.0319C14.1664 29.7645 13.4648 30.4923 13.4648 31.3901C13.4648 32.2879 14.1664 33.0157 15.0319 33.0157H26.0014C26.0282 33.0157 26.0549 33.015 26.0814 33.0137C26.1066 33.015 26.132 33.0158 26.1576 33.0158C26.9365 33.0158 27.5679 32.3607 27.5679 31.5527V31.4333C27.5683 31.419 27.5685 31.4046 27.5685 31.3901C27.5685 31.3757 27.5683 31.3612 27.5679 31.3469L27.5679 25.2669C27.5679 25.2509 27.5677 25.235 27.5672 25.2191C27.568 25.199 27.5685 25.1788 27.5685 25.1585C27.5685 24.4103 26.9838 23.8038 26.2626 23.8038H16.866C16.5454 23.8038 16.2856 23.5342 16.2856 23.2017L16.2856 21.1546C16.2856 20.8221 16.5454 20.5525 16.866 20.5525H26.0014C26.8669 20.5525 27.5685 19.8247 27.5685 18.9269C27.5685 18.0291 26.8669 17.3013 26.0014 17.3013H15.0319C15.0049 17.3013 14.9781 17.302 14.9515 17.3034C14.9262 17.302 14.9008 17.3013 14.8752 17.3013C14.0963 17.3013 13.4648 17.9563 13.4648 18.7643Z" fill="white"/>
<path fill-rule="evenodd" clip-rule="evenodd" d="M37.9405 14.5544C38.1548 14.6946 38.4029 14.769 38.6562 14.769C40.0009 14.769 40.5092 12.945 39.372 12.2007L21.3477 0.404176C20.5246 -0.134492 19.4764 -0.134494 18.6534 0.404175L0.627812 12.2016C-0.50906 12.9456 -0.000928979 14.769 1.34329 14.769C1.59653 14.769 1.8446 14.6947 2.05878 14.5545L18.6525 3.69415C19.4756 3.15548 20.5238 3.15548 21.3469 3.69415L37.9405 14.5544Z" fill="#DA4773"/>
<path fill-rule="evenodd" clip-rule="evenodd" d="M5.89484 40.1848C5.42976 40.1848 5.05274 39.7937 5.05274 39.3112L5.05273 37.1273V16.5982C5.05273 16.1157 5.42976 15.7246 5.89484 15.7246H7.158C7.62308 15.7246 8.0001 16.1157 8.0001 16.5982L8.0001 36.2537C8.0001 36.7362 8.37713 37.1273 8.84221 37.1273H31.579C32.0441 37.1273 32.4212 36.7362 32.4212 36.2537V16.5982C32.4212 16.1157 32.7982 15.7246 33.2633 15.7246H34.5264C34.9915 15.7246 35.3685 16.1157 35.3685 16.5982V37.1273V39.3112C35.3685 39.7937 34.9915 40.1848 34.5264 40.1848H32.4212H8.0001H5.89484Z" fill="white"/>
<path d="M67.1025 34.2432C67.1025 35.5127 66.7852 36.6016 66.1504 37.5098C65.5254 38.4082 64.6416 39.0967 63.499 39.5752C62.3564 40.0537 60.999 40.293 59.4268 40.293C58.6357 40.293 57.8789 40.249 57.1562 40.1611C56.4434 40.083 55.7793 39.9658 55.1641 39.8096C54.5488 39.6533 53.9922 39.458 53.4941 39.2236V36.3818C54.3047 36.7139 55.2422 37.0264 56.3066 37.3193C57.3711 37.6025 58.4697 37.7441 59.6025 37.7441C60.5889 37.7441 61.4141 37.6123 62.0781 37.3486C62.752 37.0752 63.2598 36.6943 63.6016 36.2061C63.9434 35.7178 64.1143 35.1318 64.1143 34.4482C64.1143 33.7646 63.9482 33.1934 63.6162 32.7344C63.2842 32.2656 62.7568 31.8359 62.0342 31.4453C61.3213 31.0547 60.3838 30.6396 59.2217 30.2002C58.4111 29.9072 57.6738 29.5752 57.0098 29.2041C56.3457 28.8232 55.7695 28.3887 55.2812 27.9004C54.8027 27.4121 54.4316 26.8408 54.168 26.1865C53.9043 25.5225 53.7725 24.7607 53.7725 23.9014C53.7725 22.7197 54.0605 21.709 54.6367 20.8691C55.2227 20.0293 56.0381 19.3896 57.083 18.9502C58.1279 18.501 59.3389 18.2764 60.7158 18.2764C61.8486 18.2764 62.9033 18.3887 63.8799 18.6133C64.8662 18.8379 65.8037 19.1455 66.6924 19.5361L65.7402 22.0264C64.9102 21.6846 64.0752 21.4062 63.2354 21.1914C62.3955 20.9766 61.5264 20.8691 60.6279 20.8691C59.7979 20.8691 59.0947 20.9912 58.5186 21.2354C57.9521 21.4795 57.5176 21.8262 57.2148 22.2754C56.9219 22.7246 56.7754 23.2568 56.7754 23.8721C56.7754 24.5654 56.9316 25.1416 57.2441 25.6006C57.5566 26.0596 58.0498 26.4746 58.7236 26.8457C59.3975 27.2168 60.2764 27.6123 61.3604 28.0322C62.5811 28.501 63.6162 28.999 64.4658 29.5264C65.3252 30.0537 65.9795 30.6885 66.4287 31.4307C66.8779 32.1729 67.1025 33.1104 67.1025 34.2432ZM81.502 47.1777V40.3076C81.502 39.917 81.5117 39.4824 81.5312 39.0039C81.5605 38.5254 81.5996 38.1006 81.6484 37.7295H81.4873C81.0479 38.4521 80.4229 39.0625 79.6123 39.5605C78.8018 40.0488 77.7568 40.293 76.4775 40.293C74.5439 40.293 72.9863 39.5947 71.8047 38.1982C70.6328 36.8018 70.0469 34.7217 70.0469 31.958C70.0469 30.1416 70.3154 28.6084 70.8525 27.3584C71.3994 26.1084 72.166 25.166 73.1523 24.5312C74.1387 23.8867 75.2861 23.5645 76.5947 23.5645C77.8545 23.5645 78.8799 23.8135 79.6709 24.3115C80.4717 24.7998 81.1016 25.4004 81.5605 26.1133H81.6777L82.0586 23.8574H84.4463V47.1777H81.502ZM77.2246 37.9053C78.2793 37.9053 79.1191 37.7051 79.7441 37.3047C80.3789 36.9043 80.8428 36.3037 81.1357 35.5029C81.4287 34.6924 81.585 33.6816 81.6045 32.4707V31.958C81.6045 30.0049 81.2773 28.5254 80.623 27.5195C79.9785 26.5039 78.8359 25.9961 77.1953 25.9961C75.8086 25.9961 74.7734 26.5332 74.0898 27.6074C73.416 28.6719 73.0791 30.1416 73.0791 32.0166C73.0791 33.9014 73.416 35.3564 74.0898 36.3818C74.7734 37.3975 75.8184 37.9053 77.2246 37.9053ZM103.196 23.8574V40H100.838L100.428 37.7881H100.267C99.9346 38.3447 99.5049 38.8086 98.9775 39.1797C98.4502 39.5508 97.8594 39.8291 97.2051 40.0146C96.5508 40.2002 95.8574 40.293 95.125 40.293C93.8848 40.293 92.8301 40.0879 91.9609 39.6777C91.1016 39.2676 90.4473 38.6328 89.998 37.7734C89.5586 36.9043 89.3389 35.7861 89.3389 34.4189V23.8574H92.2979V34.0088C92.2979 35.3076 92.5762 36.2793 93.1328 36.9238C93.6992 37.5684 94.5586 37.8906 95.7109 37.8906C96.834 37.8906 97.7227 37.6709 98.377 37.2314C99.041 36.7822 99.5146 36.1328 99.7979 35.2832C100.091 34.4238 100.237 33.374 100.237 32.1338V23.8574H103.196ZM114.417 23.5791C116.409 23.5791 117.898 24.0234 118.885 24.9121C119.871 25.791 120.364 27.1826 120.364 29.0869V40H118.255L117.684 37.6562H117.566C117.117 38.2422 116.648 38.7305 116.16 39.1211C115.672 39.5117 115.105 39.8047 114.461 40C113.826 40.1953 113.05 40.293 112.132 40.293C111.155 40.293 110.286 40.1172 109.524 39.7656C108.763 39.4141 108.162 38.8867 107.723 38.1836C107.293 37.4707 107.078 36.5674 107.078 35.4736C107.078 33.833 107.708 32.5879 108.968 31.7383C110.228 30.8887 112.137 30.4248 114.695 30.3467L117.479 30.2295V29.3213C117.479 28.0615 117.195 27.1729 116.629 26.6553C116.072 26.1377 115.291 25.8789 114.285 25.8789C113.455 25.8789 112.659 26.001 111.897 26.2451C111.136 26.4795 110.403 26.7627 109.7 27.0947L108.763 24.9561C109.524 24.5654 110.389 24.2383 111.355 23.9746C112.332 23.7109 113.353 23.5791 114.417 23.5791ZM117.449 32.1631L115.193 32.2656C113.328 32.334 112.015 32.6465 111.253 33.2031C110.501 33.75 110.125 34.5166 110.125 35.5029C110.125 36.3623 110.384 36.9922 110.901 37.3926C111.419 37.793 112.103 37.9932 112.952 37.9932C114.261 37.9932 115.335 37.627 116.175 36.8945C117.024 36.1523 117.449 35.0586 117.449 33.6133V32.1631ZM135.877 40H123.865V38.125L132.361 26.1426H124.393V23.8574H135.672V25.9375L127.308 37.7295H135.877V40ZM150.086 40H138.074V38.125L146.57 26.1426H138.602V23.8574H149.881V25.9375L141.517 37.7295H150.086V40ZM156.663 40H153.704V17.207H156.663V40ZM168.001 23.5645C169.407 23.5645 170.613 23.8672 171.619 24.4727C172.625 25.0684 173.396 25.9131 173.934 27.0068C174.471 28.1006 174.739 29.3896 174.739 30.874V32.5439H163.782C163.812 34.2725 164.256 35.6006 165.115 36.5283C165.975 37.4463 167.181 37.9053 168.733 37.9053C169.759 37.9053 170.672 37.8076 171.473 37.6123C172.273 37.417 173.104 37.1289 173.963 36.748V39.2236C173.152 39.5947 172.337 39.8633 171.517 40.0293C170.706 40.2051 169.734 40.293 168.602 40.293C167.039 40.293 165.667 39.9805 164.485 39.3555C163.313 38.7305 162.4 37.8076 161.746 36.5869C161.092 35.3564 160.765 33.8428 160.765 32.0459C160.765 30.2686 161.062 28.75 161.658 27.4902C162.254 26.2207 163.094 25.249 164.178 24.5752C165.262 23.9014 166.536 23.5645 168.001 23.5645ZM167.986 25.8496C166.795 25.8496 165.838 26.2402 165.115 27.0215C164.393 27.793 163.968 28.9014 163.841 30.3467H171.78C171.771 29.458 171.629 28.6768 171.355 28.0029C171.082 27.3291 170.667 26.8018 170.11 26.4209C169.563 26.04 168.855 25.8496 167.986 25.8496Z" fill="white"/>
</svg>
