<svg width="223" height="58" viewBox="0 0 223 58" fill="none" xmlns="http://www.w3.org/2000/svg">
<path fill-rule="evenodd" clip-rule="evenodd" d="M19.6318 27.2671V27.4946V36.0672C19.6318 36.0931 19.6323 36.1188 19.6333 36.1445C19.6323 36.1692 19.6318 36.194 19.6318 36.2189C19.6318 37.2663 20.4845 38.1155 21.5363 38.1155H21.6832L21.6886 38.1155L21.694 38.1155H35.2389C35.7063 38.1155 36.0853 38.4928 36.0853 38.9584V41.8243C36.0853 42.2898 35.7063 42.6672 35.2389 42.6672H21.9171C20.655 42.6672 19.6318 43.6862 19.6318 44.9431C19.6318 46.2001 20.655 47.219 21.9171 47.219H37.9143C37.9535 47.219 37.9924 47.218 38.031 47.2161C38.0678 47.218 38.1048 47.219 38.142 47.219C39.278 47.219 40.1988 46.302 40.1988 45.1707V45.0036C40.1994 44.9835 40.1996 44.9633 40.1996 44.9431C40.1996 44.9229 40.1994 44.9027 40.1988 44.8826L40.1988 36.3706C40.1988 36.3482 40.1985 36.3259 40.1977 36.3037C40.199 36.2756 40.1996 36.2473 40.1996 36.2189C40.1996 35.1714 39.347 34.3223 38.2952 34.3223H24.5918C24.1243 34.3223 23.7454 33.9449 23.7454 33.4794V30.6135C23.7454 30.1479 24.1243 29.7705 24.5918 29.7705H37.9143C39.1764 29.7705 40.1996 28.7516 40.1996 27.4946C40.1996 26.2377 39.1764 25.2188 37.9143 25.2188H21.9171C21.8778 25.2188 21.8387 25.2197 21.7998 25.2217C21.763 25.2197 21.7259 25.2188 21.6886 25.2188C20.5527 25.2188 19.6318 26.1358 19.6318 27.2671Z" fill="#016D71"/>
<path fill-rule="evenodd" clip-rule="evenodd" d="M55.3299 21.3738C55.6424 21.5701 56.0043 21.6743 56.3737 21.6743C58.3347 21.6743 59.0759 19.1207 57.4174 18.0787L31.132 1.5635C29.9318 0.809367 28.4031 0.809365 27.2028 1.5635L0.91556 18.0799C-0.742379 19.1216 -0.00135476 21.6743 1.95897 21.6743C2.32828 21.6743 2.69004 21.5702 3.00238 21.3739L27.2016 6.16946C28.4019 5.41533 29.9306 5.41532 31.1308 6.16946L55.3299 21.3738Z" fill="#016D71"/>
<path fill-rule="evenodd" clip-rule="evenodd" d="M8.58256 57.2545C7.90432 57.2545 7.35449 56.7069 7.35449 56.0315L7.35449 52.974V24.2333C7.35449 23.5578 7.90432 23.0103 8.58256 23.0103H10.4247C11.1029 23.0103 11.6527 23.5578 11.6527 24.2333L11.6527 51.751C11.6527 52.4264 12.2026 52.974 12.8808 52.974H46.0387C46.7169 52.974 47.2668 52.4264 47.2668 51.751V24.2333C47.2668 23.5578 47.8166 23.0103 48.4948 23.0103H50.337C51.0152 23.0103 51.565 23.5578 51.565 24.2333V52.974V56.0315C51.565 56.7069 51.0152 57.2545 50.337 57.2545H47.2668H11.6527H8.58256Z" fill="#016D71"/>
<path d="M88.5439 41.0039C88.5439 42.5273 88.1689 43.8398 87.4189 44.9414C86.6807 46.043 85.6143 46.8867 84.2197 47.4727C82.8369 48.0586 81.1846 48.3516 79.2627 48.3516C78.3252 48.3516 77.4287 48.2988 76.5732 48.1934C75.7178 48.0879 74.9092 47.9355 74.1475 47.7363C73.3975 47.5254 72.7119 47.2734 72.0908 46.9805V43.0078C73.1338 43.4648 74.2998 43.8809 75.5889 44.2559C76.8779 44.6191 78.1904 44.8008 79.5264 44.8008C80.6162 44.8008 81.5186 44.6602 82.2334 44.3789C82.96 44.0859 83.499 43.6758 83.8506 43.1484C84.2021 42.6094 84.3779 41.9824 84.3779 41.2676C84.3779 40.5059 84.1729 39.8613 83.7627 39.334C83.3525 38.8066 82.7314 38.3262 81.8994 37.8926C81.0791 37.4473 80.0479 36.9727 78.8057 36.4688C77.9619 36.1289 77.1533 35.7422 76.3799 35.3086C75.6182 34.875 74.9385 34.3652 74.3408 33.7793C73.7432 33.1934 73.2686 32.502 72.917 31.7051C72.5771 30.8965 72.4072 29.9473 72.4072 28.8574C72.4072 27.4043 72.7529 26.1621 73.4443 25.1309C74.1475 24.0996 75.1318 23.3086 76.3975 22.7578C77.6748 22.207 79.1631 21.9316 80.8623 21.9316C82.21 21.9316 83.4756 22.0723 84.6592 22.3535C85.8545 22.6348 87.0264 23.0332 88.1748 23.5488L86.8389 26.9414C85.7842 26.5078 84.7588 26.1621 83.7627 25.9043C82.7783 25.6465 81.7705 25.5176 80.7393 25.5176C79.8486 25.5176 79.0928 25.6523 78.4717 25.9219C77.8506 26.1914 77.376 26.5723 77.0479 27.0645C76.7314 27.5449 76.5732 28.1191 76.5732 28.7871C76.5732 29.5371 76.7549 30.1699 77.1182 30.6855C77.4932 31.1895 78.0674 31.6523 78.8408 32.0742C79.626 32.4961 80.6338 32.9648 81.8643 33.4805C83.2822 34.0664 84.4834 34.6816 85.4678 35.3262C86.4639 35.9707 87.2256 36.7441 87.7529 37.6465C88.2803 38.5371 88.5439 39.6562 88.5439 41.0039ZM105.437 56.6309V48.3691C105.437 47.9004 105.448 47.3906 105.472 46.8398C105.507 46.2891 105.56 45.7852 105.63 45.3281H105.419C104.892 46.1836 104.159 46.9043 103.222 47.4902C102.284 48.0645 101.06 48.3516 99.5479 48.3516C97.2627 48.3516 95.4229 47.5078 94.0283 45.8203C92.6338 44.1211 91.9365 41.6133 91.9365 38.2969C91.9365 36.0938 92.2588 34.2422 92.9033 32.7422C93.5479 31.2422 94.4502 30.1055 95.6104 29.332C96.7822 28.5586 98.1416 28.1719 99.6885 28.1719C101.177 28.1719 102.384 28.4648 103.31 29.0508C104.247 29.625 104.997 30.334 105.56 31.1777H105.7L106.157 28.541H109.585V56.6309H105.437ZM100.778 45.0293C101.95 45.0293 102.888 44.8066 103.591 44.3613C104.294 43.916 104.804 43.2422 105.12 42.3398C105.437 41.4258 105.606 40.2949 105.63 38.9473V38.3145C105.63 36.1113 105.272 34.4355 104.558 33.2871C103.843 32.1387 102.571 31.5645 100.743 31.5645C99.1963 31.5645 98.0479 32.168 97.2979 33.375C96.5479 34.5703 96.1729 36.2344 96.1729 38.3672C96.1729 40.5234 96.5479 42.1758 97.2979 43.3242C98.0596 44.4609 99.2197 45.0293 100.778 45.0293ZM132.472 28.541V48H129.22L128.657 45.3809H128.429C128.019 46.0488 127.497 46.6055 126.864 47.0508C126.231 47.4844 125.528 47.8066 124.755 48.0176C123.981 48.2402 123.167 48.3516 122.312 48.3516C120.847 48.3516 119.593 48.1055 118.55 47.6133C117.519 47.1094 116.728 46.3359 116.177 45.293C115.626 44.25 115.351 42.9023 115.351 41.25V28.541H119.499V40.4766C119.499 41.9883 119.804 43.1191 120.413 43.8691C121.034 44.6191 121.995 44.9941 123.296 44.9941C124.55 44.9941 125.546 44.7363 126.284 44.2207C127.022 43.7051 127.544 42.9434 127.849 41.9355C128.165 40.9277 128.323 39.6914 128.323 38.2266V28.541H132.472ZM146.024 28.1719C148.485 28.1719 150.343 28.7168 151.597 29.8066C152.862 30.8965 153.495 32.5957 153.495 34.9043V48H150.56L149.769 45.2402H149.628C149.077 45.9434 148.509 46.5234 147.923 46.9805C147.337 47.4375 146.657 47.7773 145.884 48C145.122 48.2344 144.19 48.3516 143.089 48.3516C141.929 48.3516 140.892 48.1406 139.978 47.7188C139.063 47.2852 138.343 46.6289 137.815 45.75C137.288 44.8711 137.024 43.7578 137.024 42.4102C137.024 40.4062 137.769 38.9004 139.257 37.8926C140.757 36.8848 143.019 36.3281 146.042 36.2227L149.417 36.0996V35.0801C149.417 33.7324 149.101 32.7715 148.468 32.1973C147.847 31.623 146.968 31.3359 145.831 31.3359C144.858 31.3359 143.915 31.4766 143.001 31.7578C142.087 32.0391 141.196 32.3848 140.329 32.7949L138.993 29.877C139.942 29.373 141.021 28.9629 142.228 28.6465C143.446 28.3301 144.712 28.1719 146.024 28.1719ZM149.399 38.7012L146.886 38.7891C144.823 38.8594 143.376 39.2109 142.544 39.8438C141.712 40.4766 141.296 41.3438 141.296 42.4453C141.296 43.4062 141.583 44.1094 142.157 44.5547C142.731 44.9883 143.487 45.2051 144.425 45.2051C145.854 45.2051 147.038 44.8008 147.976 43.9922C148.925 43.1719 149.399 41.9707 149.399 40.3887V38.7012ZM172.304 48H157.521V45.4512L167.347 31.7227H158.118V28.541H172.022V31.3535L162.39 44.8184H172.304V48ZM189.53 48H174.747V45.4512L184.573 31.7227H175.345V28.541H189.249V31.3535L179.616 44.8184H189.53V48ZM197.88 48H193.731V20.6484H197.88V48ZM211.538 28.1719C213.272 28.1719 214.761 28.5293 216.003 29.2441C217.245 29.959 218.2 30.9727 218.868 32.2852C219.536 33.5977 219.87 35.168 219.87 36.9961V39.2109H206.88C206.927 41.0977 207.431 42.5508 208.392 43.5703C209.364 44.5898 210.724 45.0996 212.47 45.0996C213.712 45.0996 214.825 44.9824 215.81 44.748C216.806 44.502 217.831 44.1445 218.886 43.6758V47.0332C217.913 47.4902 216.923 47.8242 215.915 48.0352C214.907 48.2461 213.7 48.3516 212.294 48.3516C210.384 48.3516 208.702 47.9824 207.249 47.2441C205.808 46.4941 204.677 45.3809 203.856 43.9043C203.048 42.4277 202.644 40.5938 202.644 38.4023C202.644 36.2227 203.013 34.3711 203.751 32.8477C204.489 31.3242 205.526 30.1641 206.862 29.3672C208.198 28.5703 209.757 28.1719 211.538 28.1719ZM211.538 31.2832C210.237 31.2832 209.183 31.7051 208.374 32.5488C207.577 33.3926 207.108 34.6289 206.968 36.2578H215.827C215.815 35.2852 215.651 34.4238 215.335 33.6738C215.03 32.9238 214.562 32.3379 213.929 31.916C213.308 31.4941 212.511 31.2832 211.538 31.2832Z" fill="#016D71"/>
</svg>
