<svg width="147" height="33" viewBox="0 0 147 33" fill="none" xmlns="http://www.w3.org/2000/svg">
<path fill-rule="evenodd" clip-rule="evenodd" d="M11.2168 15.0098V15.1399V20.0384C11.2168 20.0532 11.2171 20.068 11.2176 20.0826C11.2171 20.0967 11.2168 20.1109 11.2168 20.1251C11.2168 20.7237 11.704 21.2089 12.305 21.2089H12.389L12.3921 21.2089L12.3952 21.2089H20.1351C20.4022 21.2089 20.6188 21.4246 20.6188 21.6906V23.3282C20.6188 23.5943 20.4022 23.8099 20.1351 23.8099H12.5227C11.8015 23.8099 11.2168 24.3922 11.2168 25.1104C11.2168 25.8287 11.8015 26.4109 12.5227 26.4109H21.6639C21.6863 26.4109 21.7085 26.4104 21.7306 26.4093C21.7516 26.4104 21.7728 26.4109 21.7941 26.4109C22.4432 26.4109 22.9694 25.8869 22.9694 25.2405V25.145C22.9697 25.1335 22.9698 25.122 22.9698 25.1104C22.9698 25.0989 22.9697 25.0873 22.9694 25.0759L22.9694 20.2118C22.9694 20.1991 22.9692 20.1863 22.9687 20.1736C22.9695 20.1575 22.9698 20.1414 22.9698 20.1251C22.9698 19.5266 22.4826 19.0414 21.8816 19.0414H14.0511C13.7839 19.0414 13.5674 18.8257 13.5674 18.5597L13.5674 16.922C13.5674 16.656 13.7839 16.4404 14.0511 16.4404H21.6639C22.3851 16.4404 22.9698 15.8581 22.9698 15.1399C22.9698 14.4216 22.3851 13.8394 21.6639 13.8394H12.5227C12.5002 13.8394 12.4779 13.8399 12.4557 13.841C12.4346 13.8399 12.4134 13.8394 12.3921 13.8394C11.743 13.8394 11.2168 14.3634 11.2168 15.0098Z" fill="#016D71"/>
<path fill-rule="evenodd" clip-rule="evenodd" d="M31.6171 11.6423C31.7956 11.7544 32.0024 11.814 32.2135 11.814C33.3341 11.814 33.7577 10.3548 32.81 9.75932L17.7897 0.32207C17.1039 -0.108864 16.2304 -0.108865 15.5445 0.322069L0.523177 9.76C-0.424217 10.3552 -0.000774149 11.814 1.11941 11.814C1.33045 11.814 1.53717 11.7545 1.71565 11.6423L15.5438 2.95405C16.2297 2.52311 17.1032 2.52311 17.789 2.95405L31.6171 11.6423Z" fill="#016D71"/>
<path fill-rule="evenodd" clip-rule="evenodd" d="M4.90488 32.1453C4.51731 32.1453 4.20313 31.8324 4.20313 31.4464L4.20312 29.6993V13.276C4.20312 12.89 4.51731 12.5771 4.90488 12.5771H5.95751C6.34508 12.5771 6.65927 12.89 6.65927 13.276L6.65927 29.0004C6.65927 29.3864 6.97345 29.6993 7.36102 29.6993H26.3084C26.696 29.6993 27.0101 29.3864 27.0101 29.0004V13.276C27.0101 12.89 27.3243 12.5771 27.7119 12.5771H28.7645C29.1521 12.5771 29.4663 12.89 29.4663 13.276V29.6993V31.4464C29.4663 31.8324 29.1521 32.1453 28.7645 32.1453H27.0101H6.65927H4.90488Z" fill="#016D71"/>
<path d="M57.4746 21.3359C57.4746 22.3516 57.2246 23.2266 56.7246 23.9609C56.2324 24.6953 55.5215 25.2578 54.5918 25.6484C53.6699 26.0391 52.5684 26.2344 51.2871 26.2344C50.6621 26.2344 50.0645 26.1992 49.4941 26.1289C48.9238 26.0586 48.3848 25.957 47.877 25.8242C47.377 25.6836 46.9199 25.5156 46.5059 25.3203V22.6719C47.2012 22.9766 47.9785 23.2539 48.8379 23.5039C49.6973 23.7461 50.5723 23.8672 51.4629 23.8672C52.1895 23.8672 52.791 23.7734 53.2676 23.5859C53.752 23.3906 54.1113 23.1172 54.3457 22.7656C54.5801 22.4062 54.6973 21.9883 54.6973 21.5117C54.6973 21.0039 54.5605 20.5742 54.2871 20.2227C54.0137 19.8711 53.5996 19.5508 53.0449 19.2617C52.498 18.9648 51.8105 18.6484 50.9824 18.3125C50.4199 18.0859 49.8809 17.8281 49.3652 17.5391C48.8574 17.25 48.4043 16.9102 48.0059 16.5195C47.6074 16.1289 47.291 15.668 47.0566 15.1367C46.8301 14.5977 46.7168 13.9648 46.7168 13.2383C46.7168 12.2695 46.9473 11.4414 47.4082 10.7539C47.877 10.0664 48.5332 9.53906 49.377 9.17188C50.2285 8.80469 51.2207 8.62109 52.3535 8.62109C53.252 8.62109 54.0957 8.71484 54.8848 8.90234C55.6816 9.08984 56.4629 9.35547 57.2285 9.69922L56.3379 11.9609C55.6348 11.6719 54.9512 11.4414 54.2871 11.2695C53.6309 11.0977 52.959 11.0117 52.2715 11.0117C51.6777 11.0117 51.1738 11.1016 50.7598 11.2812C50.3457 11.4609 50.0293 11.7148 49.8105 12.043C49.5996 12.3633 49.4941 12.7461 49.4941 13.1914C49.4941 13.6914 49.6152 14.1133 49.8574 14.457C50.1074 14.793 50.4902 15.1016 51.0059 15.3828C51.5293 15.6641 52.2012 15.9766 53.0215 16.3203C53.9668 16.7109 54.7676 17.1211 55.4238 17.5508C56.0879 17.9805 56.5957 18.4961 56.9473 19.0977C57.2988 19.6914 57.4746 20.4375 57.4746 21.3359ZM68.7363 31.7539V26.2461C68.7363 25.9336 68.7441 25.5938 68.7598 25.2266C68.7832 24.8594 68.8184 24.5234 68.8652 24.2188H68.7246C68.373 24.7891 67.8848 25.2695 67.2598 25.6602C66.6348 26.043 65.8184 26.2344 64.8105 26.2344C63.2871 26.2344 62.0605 25.6719 61.1309 24.5469C60.2012 23.4141 59.7363 21.7422 59.7363 19.5312C59.7363 18.0625 59.9512 16.8281 60.3809 15.8281C60.8105 14.8281 61.4121 14.0703 62.1855 13.5547C62.9668 13.0391 63.873 12.7812 64.9043 12.7812C65.8965 12.7812 66.7012 12.9766 67.3184 13.3672C67.9434 13.75 68.4434 14.2227 68.8184 14.7852H68.9121L69.2168 13.0273H71.502V31.7539H68.7363ZM65.6309 24.0195C66.4121 24.0195 67.0371 23.8711 67.5059 23.5742C67.9746 23.2773 68.3145 22.8281 68.5254 22.2266C68.7363 21.6172 68.8496 20.8633 68.8652 19.9648V19.543C68.8652 18.0742 68.627 16.957 68.1504 16.1914C67.6738 15.4258 66.8262 15.043 65.6074 15.043C64.5762 15.043 63.8105 15.4453 63.3105 16.25C62.8105 17.0469 62.5605 18.1562 62.5605 19.5781C62.5605 21.0156 62.8105 22.1172 63.3105 22.8828C63.8184 23.6406 64.5918 24.0195 65.6309 24.0195ZM86.7598 13.0273V26H84.5918L84.2168 24.2539H84.0645C83.791 24.6992 83.4434 25.0703 83.0215 25.3672C82.5996 25.6562 82.1309 25.8711 81.6152 26.0117C81.0996 26.1602 80.5566 26.2344 79.9863 26.2344C79.0098 26.2344 78.1738 26.0703 77.4785 25.7422C76.791 25.4062 76.2637 24.8906 75.8965 24.1953C75.5293 23.5 75.3457 22.6016 75.3457 21.5V13.0273H78.1113V20.9844C78.1113 21.9922 78.3145 22.7461 78.7207 23.2461C79.1348 23.7461 79.7754 23.9961 80.6426 23.9961C81.4785 23.9961 82.1426 23.8242 82.6348 23.4805C83.127 23.1367 83.4746 22.6289 83.6777 21.957C83.8887 21.2852 83.9941 20.4609 83.9941 19.4844V13.0273H86.7598ZM95.7949 12.7812C97.4355 12.7812 98.6738 13.1445 99.5098 13.8711C100.354 14.5977 100.775 15.7305 100.775 17.2695V26H98.8184L98.291 24.1602H98.1973C97.8301 24.6289 97.4512 25.0156 97.0605 25.3203C96.6699 25.625 96.2168 25.8516 95.7012 26C95.1934 26.1562 94.5723 26.2344 93.8379 26.2344C93.0645 26.2344 92.373 26.0938 91.7637 25.8125C91.1543 25.5234 90.6738 25.0859 90.3223 24.5C89.9707 23.9141 89.7949 23.1719 89.7949 22.2734C89.7949 20.9375 90.291 19.9336 91.2832 19.2617C92.2832 18.5898 93.791 18.2188 95.8066 18.1484L98.0566 18.0664V17.3867C98.0566 16.4883 97.8457 15.8477 97.4238 15.4648C97.0098 15.082 96.4238 14.8906 95.666 14.8906C95.0176 14.8906 94.3887 14.9844 93.7793 15.1719C93.1699 15.3594 92.5762 15.5898 91.998 15.8633L91.1074 13.918C91.7402 13.582 92.459 13.3086 93.2637 13.0977C94.0762 12.8867 94.9199 12.7812 95.7949 12.7812ZM98.0449 19.8008L96.3691 19.8594C94.9941 19.9062 94.0293 20.1406 93.4746 20.5625C92.9199 20.9844 92.6426 21.5625 92.6426 22.2969C92.6426 22.9375 92.834 23.4062 93.2168 23.7031C93.5996 23.9922 94.1035 24.1367 94.7285 24.1367C95.6816 24.1367 96.4707 23.8672 97.0957 23.3281C97.7285 22.7812 98.0449 21.9805 98.0449 20.9258V19.8008ZM113.314 26H103.459V24.3008L110.01 15.1484H103.857V13.0273H113.127V14.9023L106.705 23.8789H113.314V26ZM124.799 26H114.943V24.3008L121.494 15.1484H115.342V13.0273H124.611V14.9023L118.189 23.8789H124.799V26ZM130.365 26H127.6V7.76562H130.365V26ZM139.471 12.7812C140.627 12.7812 141.619 13.0195 142.447 13.4961C143.275 13.9727 143.912 14.6484 144.357 15.5234C144.803 16.3984 145.025 17.4453 145.025 18.6641V20.1406H136.365C136.396 21.3984 136.732 22.3672 137.373 23.0469C138.021 23.7266 138.928 24.0664 140.092 24.0664C140.92 24.0664 141.662 23.9883 142.318 23.832C142.982 23.668 143.666 23.4297 144.369 23.1172V25.3555C143.721 25.6602 143.061 25.8828 142.389 26.0234C141.717 26.1641 140.912 26.2344 139.975 26.2344C138.701 26.2344 137.58 25.9883 136.611 25.4961C135.65 24.9961 134.896 24.2539 134.35 23.2695C133.811 22.2852 133.541 21.0625 133.541 19.6016C133.541 18.1484 133.787 16.9141 134.279 15.8984C134.771 14.8828 135.463 14.1094 136.354 13.5781C137.244 13.0469 138.283 12.7812 139.471 12.7812ZM139.471 14.8555C138.604 14.8555 137.9 15.1367 137.361 15.6992C136.83 16.2617 136.518 17.0859 136.424 18.1719H142.33C142.322 17.5234 142.213 16.9492 142.002 16.4492C141.799 15.9492 141.486 15.5586 141.064 15.2773C140.65 14.9961 140.119 14.8555 139.471 14.8555Z" fill="#016D71"/>
</svg>
