<svg width="40" height="40" viewBox="0 0 40 40" fill="none" xmlns="http://www.w3.org/2000/svg">
<rect x="0.5" y="0.5" width="39" height="39" rx="19.5" fill="white"/>
<path d="M27.9091 13.9489C27.8034 13.8075 27.633 13.7719 27.4931 13.8591C27.4062 13.9133 27.2427 13.9845 27.0486 14.0548C27.2935 13.6584 27.4904 13.2146 27.5773 12.8157C27.6149 12.6437 27.5599 12.4625 27.4403 12.36C27.3206 12.2584 27.1613 12.2584 27.0417 12.36C26.8531 12.5201 25.9432 13.0012 25.368 13.157C24.0678 11.7705 22.5548 11.6265 20.9819 12.7445C19.7033 13.6533 19.4251 15.5014 19.4793 16.6278C16.5528 16.2848 14.7337 14.4029 13.7097 12.8453C13.638 12.7361 13.5225 12.6785 13.414 12.6869C13.2999 12.6971 13.197 12.7742 13.1385 12.8936C12.6544 13.8888 12.5201 14.989 12.7518 16.0756C12.8784 16.6685 13.0996 17.1911 13.3563 17.6146C13.2331 17.5409 13.1142 17.4486 13.0022 17.3384C12.8992 17.2351 12.7552 17.2156 12.6335 17.2842C12.5125 17.3545 12.4352 17.5036 12.4352 17.6671C12.4352 19.5329 13.3938 20.778 14.2891 21.4284C14.1444 21.4073 13.9935 21.3683 13.8411 21.3115C13.7104 21.2633 13.5684 21.3115 13.478 21.4369C13.3876 21.5614 13.366 21.7393 13.4224 21.8909C13.9253 23.2452 14.8783 24.1768 16.0575 24.5148C15.0279 25.2508 13.6498 25.6116 12.3879 25.4346C12.2245 25.4066 12.0686 25.5328 12.0172 25.7242C11.9657 25.9156 12.0332 26.1257 12.1772 26.2239C14.0916 27.5325 15.8223 28 17.318 28C19.4946 28 21.1746 27.0107 22.1972 26.1833C24.954 23.9558 26.6723 19.9564 26.433 16.378C26.8747 15.9808 27.5356 15.2473 27.9453 14.4588C28.0302 14.2995 28.0149 14.0895 27.9091 13.9489Z" fill="#232323"/>
<rect x="0.5" y="0.5" width="39" height="39" rx="19.5" stroke="#F5F5F5"/>
</svg>
