<svg width="16" height="16" viewBox="0 0 16 16" fill="none" xmlns="http://www.w3.org/2000/svg">
<path d="M15.9091 1.94891C15.8034 1.80746 15.633 1.77189 15.4931 1.85913C15.4062 1.91333 15.2427 1.98448 15.0486 2.05478C15.2935 1.6584 15.4904 1.21459 15.5773 0.815672C15.6149 0.643738 15.5599 0.462489 15.4403 0.360006C15.3206 0.258371 15.1613 0.258371 15.0417 0.360006C14.8531 0.520082 13.9432 1.00116 13.368 1.157C12.0678 -0.229479 10.5548 -0.373462 8.98192 0.744527C7.70333 1.65332 7.42507 3.50139 7.47933 4.62785C4.55276 4.28483 2.73365 2.40288 1.70966 0.845315C1.63801 0.736057 1.52254 0.678464 1.41402 0.686934C1.29993 0.697097 1.19698 0.774171 1.13854 0.893592C0.654374 1.88877 0.520115 2.98898 0.751764 4.07563C0.878371 4.6685 1.09959 5.19108 1.35628 5.61456C1.23315 5.54087 1.11419 5.44855 1.0022 5.33845C0.89924 5.23512 0.755242 5.21564 0.633504 5.28424C0.512462 5.35454 0.435246 5.5036 0.435246 5.66707C0.435246 7.53292 1.39384 8.77796 2.28914 9.42842C2.14444 9.40725 1.99349 9.36829 1.84114 9.31154C1.71036 9.26327 1.56845 9.31154 1.47802 9.43689C1.38758 9.5614 1.36602 9.73926 1.42236 9.89087C1.92531 11.2452 2.87835 12.1768 4.05746 12.5148C3.02791 13.2508 1.64984 13.6116 0.387942 13.4346C0.224466 13.4066 0.0686421 13.5328 0.0171645 13.7242C-0.0343131 13.9156 0.0331643 14.1257 0.177162 14.2239C2.09157 15.5325 3.82233 16 5.31797 16C7.49463 16 9.17461 15.0107 10.1972 14.1833C12.954 11.9558 14.6723 7.95641 14.433 4.37799C14.8747 3.98077 15.5356 3.2473 15.9453 2.45878C16.0302 2.29955 16.0149 2.0895 15.9091 1.94891Z" fill="#181818"/>
</svg>
