<svg width="40" height="40" viewBox="0 0 40 40" fill="none" xmlns="http://www.w3.org/2000/svg">
<g clip-path="url(#clip0_94_20277)">
<path d="M39.6811 39.428C39.6112 39.5392 39.5407 39.6495 39.4708 39.7591C39.2699 39.9165 39.0316 40.0006 38.7877 40H1.21197C0.978926 40.0002 0.750825 39.9236 0.555283 39.7793C0.490387 39.682 0.426224 39.5838 0.361328 39.4856L0.426223 39.445L19.4487 27.4467C19.6175 27.3404 19.8071 27.2846 20 27.2843C20.1929 27.284 20.3827 27.3393 20.5517 27.4451L39.6169 39.3874L39.6811 39.428Z" fill="#018388"/>
<path d="M38.7879 14.1988L22.3017 3.3647C21.6083 2.90902 20.8218 2.66891 20.021 2.66846C19.2203 2.66801 18.4336 2.90724 17.7398 3.36215L1.21212 14.1988C0.890786 14.1993 0.582743 14.3448 0.355525 14.6034C0.128307 14.8619 0.000454574 15.2125 0 15.5781V38.6207C0.000374391 38.9864 0.1282 39.337 0.355436 39.5956C0.582671 39.8541 0.890762 39.9996 1.21212 40H38.7879C39.1092 39.9994 39.4172 39.8539 39.6444 39.5954C39.8716 39.3368 39.9995 38.9863 40 38.6207V15.5781C39.9995 15.2125 39.8717 14.8619 39.6445 14.6034C39.4173 14.3448 39.1092 14.1993 38.7879 14.1988ZM39.8574 38.6207C39.8567 38.9433 39.7438 39.2524 39.5434 39.4804C39.343 39.7085 39.0713 39.837 38.7879 39.8378H1.21212C0.928624 39.8372 0.656884 39.7088 0.456421 39.4806C0.255958 39.2525 0.143113 38.9433 0.142602 38.6207V15.5781C0.142947 15.2555 0.255739 14.9461 0.456238 14.718C0.656737 14.4898 0.928573 14.3615 1.21212 14.3611L17.7398 3.52442C18.4336 3.06951 19.2203 2.83028 20.021 2.83073C20.8218 2.83118 21.6083 3.07129 22.3017 3.52698L38.7879 14.3611C39.0714 14.3615 39.3433 14.4898 39.5438 14.718C39.7443 14.9461 39.8571 15.2555 39.8574 15.5781V38.6207Z" fill="#232323"/>
<path d="M20.0213 27.2357C19.8971 27.2362 19.7737 27.2126 19.6565 27.166L19.6349 27.1574L19.6306 27.1028C19.6171 27.1103 19.6036 27.1175 19.59 27.1244L19.5756 27.1315L19.5613 27.1243C19.5312 27.1093 19.5014 27.0923 19.4726 27.0738L6.3457 18.6801V1.54154C6.3461 1.14359 6.48519 0.762056 6.73248 0.480658C6.97977 0.19926 7.31506 0.040974 7.66478 0.0405273H32.335C32.6847 0.040974 33.02 0.19926 33.2673 0.480658C33.5146 0.762056 33.6537 1.14359 33.6541 1.54154V18.702L33.6359 18.7136L20.57 27.0739C20.4022 27.1803 20.2133 27.236 20.0213 27.2357Z" fill="white"/>
<path d="M20.0218 27.2763C19.8935 27.2768 19.7662 27.2524 19.6452 27.2043L19.602 27.187L19.6001 27.1638L19.5761 27.1759L19.5474 27.1615C19.5163 27.1459 19.4854 27.1284 19.4556 27.1092L6.31055 18.7039V1.54158C6.31095 1.13287 6.45381 0.741033 6.70778 0.45203C6.96176 0.163028 7.3061 0.000462563 7.66527 0H32.3355C32.6947 0.000464278 33.039 0.163029 33.293 0.452032C33.547 0.741034 33.6898 1.13287 33.6902 1.54158V18.7258L20.5879 27.1093C20.4148 27.2191 20.2199 27.2766 20.0218 27.2763ZM19.7356 27.0672C19.9977 27.1529 20.279 27.1171 20.5181 26.9678L33.5476 18.6308V1.54158C33.5473 1.17589 33.4194 0.825299 33.1922 0.566717C32.965 0.308135 32.6569 0.162683 32.3355 0.162272H7.66527C7.34391 0.162682 7.03581 0.308134 6.80857 0.566716C6.58133 0.825298 6.45351 1.17589 6.45315 1.54158V18.6089L7.30802 19.1552L19.5255 26.9678C19.5421 26.9785 19.559 26.9885 19.5762 26.9979C19.5933 26.9885 19.6101 26.9785 19.6267 26.9679L19.7227 26.9063L19.7356 27.0672Z" fill="#232323"/>
<path d="M39.6848 14.7976L34.5105 18.1079L33.6192 18.6783L20.5533 27.0385C20.3909 27.1416 20.208 27.1955 20.0221 27.1951C19.9019 27.1955 19.7826 27.1728 19.6691 27.1278C19.6376 27.1163 19.6066 27.1028 19.5764 27.0872C19.5472 27.0726 19.5187 27.0564 19.4909 27.0385L7.27341 19.226L6.38214 18.6564L0.327249 14.7846C0.310785 14.7738 0.298708 14.7562 0.293637 14.7353C0.288566 14.7145 0.29091 14.6923 0.300163 14.6734C0.30944 14.6547 0.324861 14.641 0.34304 14.6352C0.361218 14.6294 0.380668 14.6321 0.397123 14.6426L6.38214 18.4698L7.27341 19.0394L19.5608 26.8966C19.6015 26.9226 19.6439 26.9451 19.6877 26.9639C19.7062 26.972 19.7255 26.9793 19.7447 26.9858C19.8668 27.0284 19.9951 27.0425 20.1221 27.0272C20.249 27.0118 20.3719 26.9674 20.4834 26.8966L33.6192 18.4925L34.5105 17.9221L39.6149 14.6564C39.6231 14.6512 39.632 14.6478 39.6413 14.6466C39.6506 14.6453 39.66 14.6461 39.669 14.649C39.678 14.6518 39.6865 14.6567 39.6938 14.6632C39.7012 14.6698 39.7073 14.678 39.7119 14.6872C39.7165 14.6965 39.7194 14.7067 39.7205 14.7173C39.7217 14.7278 39.721 14.7385 39.7184 14.7488C39.7159 14.759 39.7117 14.7686 39.7059 14.777C39.7001 14.7854 39.693 14.7923 39.6848 14.7976Z" fill="#232323"/>
<path d="M11.6987 5.35494H9.70225C9.55096 5.35494 9.40588 5.28655 9.2989 5.16482C9.19193 5.0431 9.13184 4.878 9.13184 4.70585C9.13184 4.5337 9.19193 4.3686 9.2989 4.24688C9.40588 4.12515 9.55096 4.05676 9.70225 4.05676H11.6987C11.85 4.05676 11.995 4.12515 12.102 4.24688C12.209 4.3686 12.2691 4.5337 12.2691 4.70585C12.2691 4.878 12.209 5.0431 12.102 5.16482C11.995 5.28655 11.85 5.35494 11.6987 5.35494Z" fill="#018388"/>
<path d="M14.0516 7.54561H9.70225C9.55096 7.54561 9.40588 7.47723 9.2989 7.3555C9.19193 7.23377 9.13184 7.06867 9.13184 6.89652C9.13184 6.72438 9.19193 6.55928 9.2989 6.43755C9.40588 6.31582 9.55096 6.24744 9.70225 6.24744H14.0516C14.2029 6.24744 14.348 6.31582 14.455 6.43755C14.5619 6.55928 14.622 6.72438 14.622 6.89652C14.622 7.06867 14.5619 7.23377 14.455 7.3555C14.348 7.47723 14.2029 7.54561 14.0516 7.54561Z" fill="#BCBCBC"/>
<path d="M26.2034 13.3874H13.8683C13.717 13.3874 13.5719 13.319 13.4649 13.1973C13.3579 13.0756 13.2979 12.9105 13.2979 12.7383C13.2979 12.5662 13.3579 12.4011 13.4649 12.2793C13.5719 12.1576 13.717 12.0892 13.8683 12.0892H26.2034C26.3547 12.0892 26.4997 12.1576 26.6067 12.2793C26.7137 12.4011 26.7738 12.5662 26.7738 12.7383C26.7738 12.9105 26.7137 13.0756 26.6067 13.1973C26.4997 13.319 26.3547 13.3874 26.2034 13.3874Z" fill="#018388"/>
<path d="M27.3444 15.9027H12.6563C12.5051 15.9027 12.36 15.8343 12.253 15.7126C12.146 15.5908 12.0859 15.4257 12.0859 15.2536C12.0859 15.0814 12.146 14.9163 12.253 14.7946C12.36 14.6729 12.5051 14.6045 12.6563 14.6045H27.3444C27.4957 14.6045 27.6408 14.6729 27.7477 14.7946C27.8547 14.9163 27.9148 15.0814 27.9148 15.2536C27.9148 15.4257 27.8547 15.5908 27.7477 15.7126C27.6408 15.8343 27.4957 15.9027 27.3444 15.9027Z" fill="#BCBCBC"/>
<path d="M27.3444 18.3367H12.6563C12.5051 18.3367 12.36 18.2684 12.253 18.1466C12.146 18.0249 12.0859 17.8598 12.0859 17.6877C12.0859 17.5155 12.146 17.3504 12.253 17.2287C12.36 17.107 12.5051 17.0386 12.6563 17.0386H27.3444C27.4957 17.0386 27.6408 17.107 27.7477 17.2287C27.8547 17.3504 27.9148 17.5155 27.9148 17.6877C27.9148 17.8598 27.8547 18.0249 27.7477 18.1466C27.6408 18.2684 27.4957 18.3367 27.3444 18.3367Z" fill="#BCBCBC"/>
</g>
<defs>
<clipPath id="clip0_94_20277">
<rect width="40" height="40" fill="white"/>
</clipPath>
</defs>
</svg>
