<svg width="68" height="68" viewBox="0 0 68 68" fill="none" xmlns="http://www.w3.org/2000/svg">
<rect width="68" height="68" rx="34" fill="#F5F5F5"/>
<g clip-path="url(#clip0_94_20276)">
<path d="M53.6811 53.428C53.6112 53.5392 53.5407 53.6495 53.4708 53.7591C53.2699 53.9165 53.0316 54.0006 52.7877 54H15.212C14.9789 54.0002 14.7508 53.9236 14.5553 53.7793C14.4904 53.682 14.4262 53.5838 14.3613 53.4856L14.4262 53.445L33.4487 41.4467C33.6175 41.3404 33.8071 41.2846 34 41.2843C34.1929 41.284 34.3827 41.3393 34.5517 41.4451L53.6169 53.3874L53.6811 53.428Z" fill="#018388"/>
<path d="M52.7879 28.1988L36.3017 17.3647C35.6083 16.909 34.8218 16.6689 34.021 16.6685C33.2203 16.668 32.4336 16.9072 31.7398 17.3621L15.2121 28.1988C14.8908 28.1993 14.5827 28.3448 14.3555 28.6034C14.1283 28.8619 14.0005 29.2125 14 29.5781V52.6207C14.0004 52.9864 14.1282 53.337 14.3554 53.5956C14.5827 53.8541 14.8908 53.9996 15.2121 54H52.7879C53.1092 53.9994 53.4172 53.8539 53.6444 53.5954C53.8716 53.3368 53.9995 52.9863 54 52.6207V29.5781C53.9995 29.2125 53.8717 28.8619 53.6445 28.6034C53.4173 28.3448 53.1092 28.1993 52.7879 28.1988ZM53.8574 52.6207C53.8567 52.9433 53.7438 53.2524 53.5434 53.4804C53.343 53.7085 53.0713 53.837 52.7879 53.8378H15.2121C14.9286 53.8372 14.6569 53.7088 14.4564 53.4806C14.256 53.2525 14.1431 52.9433 14.1426 52.6207V29.5781C14.1429 29.2555 14.2557 28.9461 14.4562 28.718C14.6567 28.4898 14.9286 28.3615 15.2121 28.3611L31.7398 17.5244C32.4336 17.0695 33.2203 16.8303 34.021 16.8307C34.8218 16.8312 35.6083 17.0713 36.3017 17.527L52.7879 28.3611C53.0714 28.3615 53.3433 28.4898 53.5438 28.718C53.7443 28.9461 53.8571 29.2555 53.8574 29.5781V52.6207Z" fill="#232323"/>
<path d="M34.0213 41.2357C33.8971 41.2362 33.7737 41.2126 33.6565 41.166L33.6349 41.1574L33.6306 41.1028C33.6171 41.1103 33.6036 41.1175 33.59 41.1244L33.5756 41.1315L33.5613 41.1243C33.5312 41.1093 33.5014 41.0923 33.4726 41.0738L20.3457 32.6801V15.5415C20.3461 15.1436 20.4852 14.7621 20.7325 14.4807C20.9798 14.1993 21.3151 14.041 21.6648 14.0405H46.335C46.6847 14.041 47.02 14.1993 47.2673 14.4807C47.5146 14.7621 47.6537 15.1436 47.6541 15.5415V32.702L47.6359 32.7136L34.57 41.0739C34.4022 41.1803 34.2133 41.236 34.0213 41.2357Z" fill="white"/>
<path d="M34.0218 41.2763C33.8935 41.2768 33.7662 41.2524 33.6452 41.2043L33.602 41.187L33.6001 41.1638L33.5761 41.1759L33.5474 41.1615C33.5163 41.1459 33.4854 41.1284 33.4556 41.1092L20.3105 32.7039V15.5416C20.311 15.1329 20.4538 14.741 20.7078 14.452C20.9618 14.163 21.3061 14.0005 21.6653 14H46.3355C46.6947 14.0005 47.039 14.163 47.293 14.452C47.547 14.741 47.6898 15.1329 47.6902 15.5416V32.7258L34.5879 41.1093C34.4148 41.2191 34.2199 41.2766 34.0218 41.2763ZM33.7356 41.0672C33.9977 41.1529 34.279 41.1171 34.5181 40.9678L47.5476 32.6308V15.5416C47.5473 15.1759 47.4194 14.8253 47.1922 14.5667C46.965 14.3081 46.6569 14.1627 46.3355 14.1623H21.6653C21.3439 14.1627 21.0358 14.3081 20.8086 14.5667C20.5813 14.8253 20.4535 15.1759 20.4531 15.5416V32.6089L21.308 33.1552L33.5255 40.9678C33.5421 40.9785 33.559 40.9885 33.5762 40.9979C33.5933 40.9885 33.6101 40.9785 33.6267 40.9679L33.7227 40.9063L33.7356 41.0672Z" fill="#232323"/>
<path d="M53.6848 28.7976L48.5105 32.1079L47.6192 32.6783L34.5533 41.0385C34.3909 41.1416 34.208 41.1955 34.0221 41.1951C33.9019 41.1955 33.7826 41.1728 33.6691 41.1278C33.6376 41.1163 33.6066 41.1028 33.5764 41.0872C33.5472 41.0726 33.5187 41.0564 33.4909 41.0385L21.2734 33.226L20.3821 32.6564L14.3272 28.7846C14.3108 28.7738 14.2987 28.7562 14.2936 28.7353C14.2886 28.7145 14.2909 28.6923 14.3002 28.6734C14.3094 28.6547 14.3249 28.641 14.343 28.6352C14.3612 28.6294 14.3807 28.6321 14.3971 28.6426L20.3821 32.4698L21.2734 33.0394L33.5608 40.8966C33.6015 40.9226 33.6439 40.9451 33.6877 40.9639C33.7062 40.972 33.7255 40.9793 33.7447 40.9858C33.8668 41.0284 33.9951 41.0425 34.1221 41.0272C34.249 41.0118 34.3719 40.9674 34.4834 40.8966L47.6192 32.4925L48.5105 31.9221L53.6149 28.6564C53.6231 28.6512 53.632 28.6478 53.6413 28.6466C53.6506 28.6453 53.66 28.6461 53.669 28.649C53.678 28.6518 53.6865 28.6567 53.6938 28.6632C53.7012 28.6698 53.7073 28.678 53.7119 28.6872C53.7165 28.6965 53.7194 28.7067 53.7205 28.7173C53.7217 28.7278 53.721 28.7385 53.7184 28.7488C53.7159 28.759 53.7117 28.7686 53.7059 28.777C53.7001 28.7854 53.693 28.7923 53.6848 28.7976Z" fill="#232323"/>
<path d="M25.6987 19.3549H23.7022C23.551 19.3549 23.4059 19.2866 23.2989 19.1648C23.1919 19.0431 23.1318 18.878 23.1318 18.7058C23.1318 18.5337 23.1919 18.3686 23.2989 18.2469C23.4059 18.1251 23.551 18.0568 23.7022 18.0568H25.6987C25.85 18.0568 25.995 18.1251 26.102 18.2469C26.209 18.3686 26.2691 18.5337 26.2691 18.7058C26.2691 18.878 26.209 19.0431 26.102 19.1648C25.995 19.2866 25.85 19.3549 25.6987 19.3549Z" fill="#018388"/>
<path d="M28.0516 21.5456H23.7022C23.551 21.5456 23.4059 21.4772 23.2989 21.3555C23.1919 21.2338 23.1318 21.0687 23.1318 20.8965C23.1318 20.7244 23.1919 20.5593 23.2989 20.4375C23.4059 20.3158 23.551 20.2474 23.7022 20.2474H28.0516C28.2029 20.2474 28.348 20.3158 28.455 20.4375C28.5619 20.5593 28.622 20.7244 28.622 20.8965C28.622 21.0687 28.5619 21.2338 28.455 21.3555C28.348 21.4772 28.2029 21.5456 28.0516 21.5456Z" fill="#BCBCBC"/>
<path d="M40.2034 27.3874H27.8683C27.717 27.3874 27.5719 27.319 27.4649 27.1973C27.3579 27.0756 27.2979 26.9105 27.2979 26.7383C27.2979 26.5662 27.3579 26.4011 27.4649 26.2793C27.5719 26.1576 27.717 26.0892 27.8683 26.0892H40.2034C40.3547 26.0892 40.4997 26.1576 40.6067 26.2793C40.7137 26.4011 40.7738 26.5662 40.7738 26.7383C40.7738 26.9105 40.7137 27.0756 40.6067 27.1973C40.4997 27.319 40.3547 27.3874 40.2034 27.3874Z" fill="#018388"/>
<path d="M41.3444 29.9027H26.6563C26.5051 29.9027 26.36 29.8343 26.253 29.7126C26.146 29.5908 26.0859 29.4257 26.0859 29.2536C26.0859 29.0814 26.146 28.9163 26.253 28.7946C26.36 28.6729 26.5051 28.6045 26.6563 28.6045H41.3444C41.4957 28.6045 41.6408 28.6729 41.7477 28.7946C41.8547 28.9163 41.9148 29.0814 41.9148 29.2536C41.9148 29.4257 41.8547 29.5908 41.7477 29.7126C41.6408 29.8343 41.4957 29.9027 41.3444 29.9027Z" fill="#BCBCBC"/>
<path d="M41.3444 32.3367H26.6563C26.5051 32.3367 26.36 32.2684 26.253 32.1466C26.146 32.0249 26.0859 31.8598 26.0859 31.6877C26.0859 31.5155 26.146 31.3504 26.253 31.2287C26.36 31.107 26.5051 31.0386 26.6563 31.0386H41.3444C41.4957 31.0386 41.6408 31.107 41.7477 31.2287C41.8547 31.3504 41.9148 31.5155 41.9148 31.6877C41.9148 31.8598 41.8547 32.0249 41.7477 32.1466C41.6408 32.2684 41.4957 32.3367 41.3444 32.3367Z" fill="#BCBCBC"/>
</g>
<g clip-path="url(#clip1_94_20276)">
<path d="M58.0003 41.6666C53.4003 41.6666 49.667 45.4 49.667 50C49.667 54.6 53.4003 58.3333 58.0003 58.3333C62.6003 58.3333 66.3337 54.6 66.3337 50C66.3337 45.4 62.6003 41.6666 58.0003 41.6666ZM56.3337 54.1666L52.167 50L53.342 48.825L56.3337 51.8083L62.6587 45.4833L63.8337 46.6666L56.3337 54.1666Z" fill="#323232"/>
</g>
<defs>
<clipPath id="clip0_94_20276">
<rect width="40" height="40" fill="white" transform="translate(14 14)"/>
</clipPath>
<clipPath id="clip1_94_20276">
<rect width="20" height="20" fill="white" transform="translate(48 40)"/>
</clipPath>
</defs>
</svg>
