<svg width="34" height="34" viewBox="0 0 34 34" fill="none" xmlns="http://www.w3.org/2000/svg">
<path d="M16.9987 0.333496C7.7987 0.333496 0.332031 7.80016 0.332031 17.0002C0.332031 26.2002 7.7987 33.6668 16.9987 33.6668C26.1987 33.6668 33.6654 26.2002 33.6654 17.0002C33.6654 7.80016 26.1987 0.333496 16.9987 0.333496ZM16.9987 5.3335C19.7654 5.3335 21.9987 7.56683 21.9987 10.3335C21.9987 13.1002 19.7654 15.3335 16.9987 15.3335C14.232 15.3335 11.9987 13.1002 11.9987 10.3335C11.9987 7.56683 14.232 5.3335 16.9987 5.3335ZM16.9987 29.0002C12.832 29.0002 9.1487 26.8668 6.9987 23.6335C7.0487 20.3168 13.6654 18.5002 16.9987 18.5002C20.3154 18.5002 26.9487 20.3168 26.9987 23.6335C24.8487 26.8668 21.1654 29.0002 16.9987 29.0002Z" fill="#2B989C"/>
</svg>
