<svg width="88" height="88" viewBox="0 0 88 88" fill="none" xmlns="http://www.w3.org/2000/svg">
<rect width="88" height="88" rx="44" fill="#F5F5F5"/>
<g clip-path="url(#clip0_1_1335)">
<path d="M71.5536 71.1992C71.4557 71.3548 71.3569 71.5093 71.2591 71.6626C70.9779 71.8831 70.6443 72.0008 70.3028 72H17.6968C17.3705 72.0003 17.0512 71.893 16.7774 71.691C16.6865 71.5547 16.5967 71.4173 16.5059 71.2798L16.5967 71.223L43.2282 54.4253C43.4645 54.2766 43.73 54.1984 44 54.198C44.2701 54.1976 44.5358 54.275 44.7724 54.4231L71.4637 71.1424L71.5536 71.1992Z" fill="#018388"/>
<path d="M70.303 35.8783L47.2224 20.7106C46.2516 20.0726 45.1505 19.7364 44.0295 19.7358C42.9084 19.7352 41.807 20.0701 40.8357 20.707L17.697 35.8783C17.2471 35.879 16.8158 36.0827 16.4977 36.4447C16.1796 36.8067 16.0006 37.2974 16 37.8093V70.069C16.0005 70.5809 16.1795 71.0718 16.4976 71.4338C16.8157 71.7958 17.2471 71.9994 17.697 72H70.303C70.7529 71.9991 71.184 71.7954 71.5021 71.4335C71.8202 71.0715 71.9992 70.5808 72 70.069V37.8093C71.9994 37.2974 71.8204 36.8067 71.5023 36.4447C71.1842 36.0827 70.7529 35.879 70.303 35.8783ZM71.8004 70.069C71.7994 70.5205 71.6413 70.9533 71.3607 71.2726C71.0801 71.5919 70.6998 71.7717 70.303 71.7728H17.697C17.3001 71.772 16.9196 71.5922 16.639 71.2729C16.3583 70.9535 16.2004 70.5206 16.1996 70.069V37.8093C16.2001 37.3576 16.358 36.9246 16.6387 36.6051C16.9194 36.2857 17.3 36.106 17.697 36.1055L40.8357 20.9342C41.807 20.2973 42.9084 19.9624 44.0295 19.963C45.1505 19.9636 46.2516 20.2998 47.2224 20.9377L70.303 36.1055C70.7 36.106 71.0806 36.2857 71.3613 36.6051C71.642 36.9246 71.7999 37.3576 71.8004 37.8093V70.069Z" fill="#232323"/>
<path d="M44.0296 54.13C43.8557 54.1307 43.683 54.0977 43.5189 54.0325L43.4887 54.0204L43.4826 53.944C43.4638 53.9545 43.4448 53.9646 43.4258 53.9741L43.4057 53.9842L43.3856 53.9741C43.3435 53.9531 43.3017 53.9293 43.2614 53.9034L24.8838 42.1522V18.1582C24.8843 17.6011 25.0791 17.0669 25.4253 16.673C25.7715 16.279 26.2409 16.0574 26.7305 16.0568H61.2688C61.7584 16.0574 62.2278 16.279 62.574 16.673C62.9202 17.0669 63.115 17.6011 63.1155 18.1582V42.1828L63.0901 42.1991L44.7977 53.9035C44.5629 54.0525 44.2984 54.1304 44.0296 54.13Z" fill="white"/>
<path d="M44.0297 54.1868C43.8502 54.1875 43.6719 54.1534 43.5024 54.0861L43.442 54.0618L43.4394 54.0294L43.4058 54.0462L43.3656 54.0261C43.322 54.0043 43.2788 53.9797 43.2371 53.9529L24.834 42.1854V18.1582C24.8346 17.586 25.0346 17.0374 25.3901 16.6328C25.7457 16.2282 26.2278 16.0006 26.7306 16H61.2689C61.7718 16.0006 62.2538 16.2282 62.6094 16.6328C62.965 17.0374 63.165 17.586 63.1655 18.1582V42.2161L44.8223 53.953C44.58 54.1067 44.3071 54.1872 44.0297 54.1868ZM43.6291 53.8941C43.9961 54.014 44.3898 53.964 44.7245 53.7549L62.9659 42.0832V18.1582C62.9654 17.6462 62.7864 17.1554 62.4683 16.7934C62.1502 16.4314 61.7188 16.2278 61.2689 16.2272H26.7306C26.2807 16.2278 25.8494 16.4314 25.5312 16.7934C25.2131 17.1554 25.0341 17.6462 25.0336 18.1582V42.0524L26.2305 42.8173L43.335 53.755C43.3582 53.7699 43.3819 53.7839 43.4058 53.7971C43.4298 53.7839 43.4534 53.7699 43.4766 53.755L43.6111 53.6688L43.6291 53.8941Z" fill="#232323"/>
<path d="M71.5576 36.7166L64.3135 41.3511L63.0657 42.1496L44.7734 53.854C44.5461 53.9982 44.29 54.0737 44.0297 54.0732C43.8615 54.0737 43.6945 54.0419 43.5356 53.9789C43.4914 53.9628 43.4481 53.9439 43.4058 53.9221C43.3649 53.9017 43.325 53.8789 43.2861 53.854L26.1816 42.9163L24.9338 42.1189L16.457 36.6984C16.4339 36.6834 16.417 36.6586 16.4099 36.6295C16.4028 36.6003 16.4061 36.5692 16.4191 36.5428C16.432 36.5166 16.4536 36.4974 16.4791 36.4893C16.5045 36.4812 16.5318 36.4849 16.5548 36.4996L24.9338 41.8577L26.1816 42.6551L43.3839 53.6552C43.441 53.6916 43.5003 53.7231 43.5616 53.7495C43.5875 53.7608 43.6145 53.771 43.6414 53.7801C43.8123 53.8398 43.992 53.8595 44.1697 53.838C44.3475 53.8165 44.5195 53.7543 44.6756 53.6552L63.0657 41.8895L64.3135 41.091L71.4597 36.5189C71.4711 36.5116 71.4837 36.507 71.4967 36.5052C71.5097 36.5034 71.5229 36.5045 71.5355 36.5085C71.5481 36.5125 71.5599 36.5193 71.5702 36.5285C71.5805 36.5377 71.5891 36.5491 71.5955 36.5621C71.6019 36.5751 71.606 36.5894 71.6076 36.6042C71.6092 36.6189 71.6082 36.6339 71.6046 36.6483C71.6011 36.6626 71.5951 36.676 71.5871 36.6878C71.579 36.6995 71.569 36.7093 71.5576 36.7166Z" fill="#232323"/>
<path d="M32.3778 23.4969H29.5828C29.371 23.4969 29.1678 23.4012 29.0181 23.2308C28.8683 23.0604 28.7842 22.8292 28.7842 22.5882C28.7842 22.3472 28.8683 22.1161 29.0181 21.9457C29.1678 21.7752 29.371 21.6795 29.5828 21.6795H32.3778C32.5896 21.6795 32.7927 21.7752 32.9424 21.9457C33.0922 22.1161 33.1763 22.3472 33.1763 22.5882C33.1763 22.8292 33.0922 23.0604 32.9424 23.2308C32.7927 23.4012 32.5896 23.4969 32.3778 23.4969Z" fill="#018388"/>
<path d="M35.6719 26.5639H29.5828C29.371 26.5639 29.1678 26.4682 29.0181 26.2977C28.8683 26.1273 28.7842 25.8962 28.7842 25.6552C28.7842 25.4142 28.8683 25.183 29.0181 25.0126C29.1678 24.8422 29.371 24.7465 29.5828 24.7465H35.6719C35.8837 24.7465 36.0868 24.8422 36.2366 25.0126C36.3863 25.183 36.4705 25.4142 36.4705 25.6552C36.4705 25.8962 36.3863 26.1273 36.2366 26.2977C36.0868 26.4682 35.8837 26.5639 35.6719 26.5639Z" fill="#BCBCBC"/>
<path d="M52.6849 34.7424H35.4158C35.204 34.7424 35.0008 34.6467 34.8511 34.4762C34.7013 34.3058 34.6172 34.0747 34.6172 33.8337C34.6172 33.5927 34.7013 33.3615 34.8511 33.1911C35.0008 33.0207 35.204 32.925 35.4158 32.925H52.6849C52.8967 32.925 53.0998 33.0207 53.2496 33.1911C53.3994 33.3615 53.4835 33.5927 53.4835 33.8337C53.4835 34.0747 53.3994 34.3058 53.2496 34.4762C53.0998 34.6467 52.8967 34.7424 52.6849 34.7424Z" fill="#018388"/>
<path d="M54.2818 38.2637H33.7185C33.5067 38.2637 33.3036 38.168 33.1538 37.9975C33.0041 37.8271 32.9199 37.596 32.9199 37.355C32.9199 37.114 33.0041 36.8828 33.1538 36.7124C33.3036 36.542 33.5067 36.4463 33.7185 36.4463H54.2818C54.4936 36.4463 54.6967 36.542 54.8465 36.7124C54.9962 36.8828 55.0803 37.114 55.0803 37.355C55.0803 37.596 54.9962 37.8271 54.8465 37.9975C54.6967 38.168 54.4936 38.2637 54.2818 38.2637Z" fill="#BCBCBC"/>
<path d="M54.2818 41.6714H33.7185C33.5067 41.6714 33.3036 41.5756 33.1538 41.4052C33.0041 41.2348 32.9199 41.0037 32.9199 40.7627C32.9199 40.5217 33.0041 40.2905 33.1538 40.1201C33.3036 39.9497 33.5067 39.8539 33.7185 39.8539H54.2818C54.4936 39.8539 54.6967 39.9497 54.8465 40.1201C54.9962 40.2905 55.0803 40.5217 55.0803 40.7627C55.0803 41.0037 54.9962 41.2348 54.8465 41.4052C54.6967 41.5756 54.4936 41.6714 54.2818 41.6714Z" fill="#BCBCBC"/>
</g>
<g clip-path="url(#clip1_1_1335)">
<path d="M76 58C70.48 58 66 62.48 66 68C66 73.52 70.48 78 76 78C81.52 78 86 73.52 86 68C86 62.48 81.52 58 76 58ZM74 73L69 68L70.41 66.59L74 70.17L81.59 62.58L83 64L74 73Z" fill="#323232"/>
</g>
<defs>
<clipPath id="clip0_1_1335">
<rect width="56" height="56" fill="white" transform="translate(16 16)"/>
</clipPath>
<clipPath id="clip1_1_1335">
<rect width="24" height="24" fill="white" transform="translate(64 56)"/>
</clipPath>
</defs>
</svg>
